<svg xmlns="http://www.w3.org/2000/svg" xmlns:xlink="http://www.w3.org/1999/xlink" viewBox="0 0 512 512"><defs><linearGradient id="linear-gradient" x1="204.88" y1="339.03" x2="204.88" y2="67.2" gradientUnits="userSpaceOnUse"><stop offset="0" stop-color="#e51f40"/><stop offset="1" stop-color="#660e3a"/></linearGradient><linearGradient id="linear-gradient-2" x1="255.98" y1="351.6" x2="256.88" y2="257.65" xlink:href="#linear-gradient"/><linearGradient id="linear-gradient-3" x1="309.7" y1="80.82" x2="305.09" y2="321.84" xlink:href="#linear-gradient"/><linearGradient id="linear-gradient-4" x1="220.45" y1="373.93" x2="183.65" y2="437.67" xlink:href="#linear-gradient"/><linearGradient id="linear-gradient-5" x1="265.86" y1="362.69" x2="237.41" y2="411.97" xlink:href="#linear-gradient"/><linearGradient id="linear-gradient-6" x1="345.25" y1="366.27" x2="305.06" y2="435.87" xlink:href="#linear-gradient"/><linearGradient id="linear-gradient-7" x1="301.62" y1="361.92" x2="286.46" y2="388.19" xlink:href="#linear-gradient"/></defs><title>Ark-Shelf-Icon</title><g id="Layer_1" data-name="Layer 1"><polygon points="256 82.17 153.77 105.4 153.77 349.85 256 246.99 256 82.17" style="fill:url(#linear-gradient)"/><polygon points="153.77 349.85 256 288.48 358.23 349.85 256 246.99 153.77 349.85" style="fill:url(#linear-gradient-2)"/><polygon points="256 82.17 256 246.99 358.23 349.85 358.23 97.66 256 82.17" style="fill:url(#linear-gradient-3)"/><path d="M201.62,364.39a6.47,6.47,0,0,0-5.84-3.71,6.44,6.44,0,0,0-5.85,3.73l-25.08,53.74a8.21,8.21,0,0,0,7.45,11.68h0a8.21,8.21,0,0,0,7.46-4.78l2-4.25,7.1-15.31,3.78-8.09a3.65,3.65,0,0,1,6.61,0l3.72,8.08L210,420.8l2,4.31a8.21,8.21,0,0,0,7.44,4.72h0a8.21,8.21,0,0,0,7.43-11.71Z" style="fill:url(#linear-gradient-4)"/><path d="M274.11,407a3.33,3.33,0,0,1,.39-3.91,25.38,25.38,0,0,0-18.92-42.37h-34a7.66,7.66,0,0,0-7.66,7.65h0a7.66,7.66,0,0,0,7.66,7.66h34.08a10.08,10.08,0,0,1,10.15,9.83,9.83,9.83,0,0,1-9.95,10H238.62a7.66,7.66,0,0,0-7.65,7.65v.37a7.66,7.66,0,0,0,7.65,7.66H252.4a6,6,0,0,1,5.2,3l6.34,10.88a9,9,0,0,0,7.8,4.48h0a9,9,0,0,0,7.8-13.59Z" style="fill:url(#linear-gradient-5)"/><path d="M338.83,429.83h0a9.1,9.1,0,0,1-6.41-2.64l-18.83-18.77a4.37,4.37,0,0,0-6.21,0h0a4.37,4.37,0,0,0-1.25,3.06v9.23a9.08,9.08,0,0,1-9.08,9.08h0a9.08,9.08,0,0,1-9.08-9.08V407.14a11.86,11.86,0,0,1,3.45-8.36L306.13,384l20.59-20.68a9,9,0,0,1,6.38-2.65h0a9,9,0,0,1,6.38,15.37L325.63,390a3.34,3.34,0,0,0,0,4.72l19.63,19.67A9.08,9.08,0,0,1,338.83,429.83Z" style="fill:url(#linear-gradient-6)"/><path d="M306.13,369.76h0a9.73,9.73,0,0,1-2.84,6.87l-12.58,12.63a1.61,1.61,0,0,1-2.75-1.13V369.76a9.09,9.09,0,0,1,9.08-9.08h0A9.09,9.09,0,0,1,306.13,369.76Z" style="fill:url(#linear-gradient-7)"/></g></svg>