<svg xmlns="http://www.w3.org/2000/svg" xmlns:xlink="http://www.w3.org/1999/xlink" viewBox="0 0 512 512"><defs><linearGradient id="linear-gradient" y1="256" x2="512" y2="256" gradientUnits="userSpaceOnUse"><stop offset="0.01" stop-color="#11121e"/><stop offset="1" stop-color="#292c3d"/></linearGradient></defs><title>Ark-Compass-Icon-bg4</title><g id="Layer_2" data-name="Layer 2"><rect width="512" height="512" style="fill:url(#linear-gradient)"/></g><g id="Layer_1" data-name="Layer 1"><polygon points="380.69 86.74 310.29 157.15 235.78 191.21 187.99 143.42 380.69 86.74" style="fill:#e6e6e6"/><polygon points="324.01 279.44 276.22 231.65 310.29 157.15 380.69 86.74 324.01 279.44" style="fill:#f2f2f2"/><polygon points="276.22 231.65 285.01 182.42 235.78 191.21 310.29 157.15 276.22 231.65" style="fill:#ccc"/><polygon points="131.31 336.13 201.71 265.72 276.22 231.66 324.01 279.44 131.31 336.13" style="fill:#e6e6e6"/><polygon points="187.99 143.42 235.78 191.22 201.71 265.72 131.31 336.13 187.99 143.42" style="fill:#f2f2f2"/><polygon points="235.78 191.22 226.99 240.44 276.22 231.66 201.71 265.72 235.78 191.22" style="fill:#ccc"/><path d="M201.62,359.81a6.46,6.46,0,0,0-11.69,0l-25.08,53.74a8.22,8.22,0,0,0,7.45,11.69h0a8.21,8.21,0,0,0,7.46-4.79l2-4.25,7.1-15.3,3.78-8.1a3.64,3.64,0,0,1,6.61,0l3.72,8.08,7.1,15.3,2,4.32a8.21,8.21,0,0,0,7.44,4.72h0a8.21,8.21,0,0,0,7.43-11.71Z" style="fill:#f2f2f2"/><path d="M274.11,402.38a3.32,3.32,0,0,1,.39-3.9,25.38,25.38,0,0,0-18.92-42.37h-34a7.65,7.65,0,0,0-7.66,7.65h0a7.65,7.65,0,0,0,7.66,7.65h34.08a10.08,10.08,0,0,1,10.15,9.84,9.83,9.83,0,0,1-9.95,10H238.62a7.65,7.65,0,0,0-7.65,7.65v.37a7.66,7.66,0,0,0,7.65,7.65H252.4a6,6,0,0,1,5.2,3l6.34,10.87a9,9,0,0,0,7.8,4.49h0a9,9,0,0,0,7.8-13.59Z" style="fill:#f2f2f2"/><path d="M338.83,425.26h0a9.07,9.07,0,0,1-6.41-2.65l-18.83-18.76a4.37,4.37,0,0,0-6.21,0h0a4.39,4.39,0,0,0-1.25,3.06v9.24a9.09,9.09,0,0,1-9.08,9.08h0a9.09,9.09,0,0,1-9.08-9.08V402.56a11.83,11.83,0,0,1,3.45-8.35l14.72-14.78,20.59-20.67a9,9,0,0,1,6.38-2.65h0a9,9,0,0,1,6.38,15.37l-13.85,13.89a3.34,3.34,0,0,0,0,4.72l19.63,19.68A9.08,9.08,0,0,1,338.83,425.26Z" style="fill:#f2f2f2"/><path d="M306.13,365.19h0a9.7,9.7,0,0,1-2.84,6.86l-12.58,12.64a1.61,1.61,0,0,1-2.75-1.14V365.19a9.08,9.08,0,0,1,9.08-9.08h0A9.08,9.08,0,0,1,306.13,365.19Z" style="fill:#f2f2f2"/></g></svg>