<svg xmlns="http://www.w3.org/2000/svg" xmlns:xlink="http://www.w3.org/1999/xlink" viewBox="0 0 512 512"><defs><linearGradient id="linear-gradient" y1="256" x2="512" y2="256" gradientUnits="userSpaceOnUse"><stop offset="0.01" stop-color="#ccc"/><stop offset="1" stop-color="#f2f2f2"/></linearGradient></defs><title>Ark-Builder-Icon-Only-wh</title><g id="Layer_2" data-name="Layer 2"><rect width="512" height="512" style="fill:url(#linear-gradient)"/></g><g id="Layer_1" data-name="Layer 1"><path d="M146.54,193.86a13,13,0,0,0-23.52,0L72.54,302.07a16.54,16.54,0,0,0,15,23.53h0a16.55,16.55,0,0,0,15-9.64l3.92-8.55,14.3-30.81,7.6-16.29a7.33,7.33,0,0,1,13.3,0l7.49,16.26,14.29,30.81,4.07,8.68a16.53,16.53,0,0,0,15,9.51h0a16.54,16.54,0,0,0,15-23.58Z" style="fill:#292c3d"/><path d="M292.45,279.55a6.7,6.7,0,0,1,.78-7.86,51.07,51.07,0,0,0-38.08-85.28H186.71a15.4,15.4,0,0,0-15.4,15.4h0a15.41,15.41,0,0,0,15.4,15.41h68.61A20.29,20.29,0,0,1,275.75,237a19.81,19.81,0,0,1-20,20.11H221a15.39,15.39,0,0,0-15.4,15.4v.74A15.4,15.4,0,0,0,221,288.67h27.73a12.09,12.09,0,0,1,10.46,6L272,316.57a18.19,18.19,0,0,0,15.71,9h0a18.19,18.19,0,0,0,15.7-27.36Z" style="fill:#292c3d"/><path d="M422.72,325.6h0a18.29,18.29,0,0,1-12.9-5.33L371.91,282.5a8.81,8.81,0,0,0-12.5.07h0a8.82,8.82,0,0,0-2.51,6.16v18.59a18.28,18.28,0,0,1-18.28,18.28h0a18.29,18.29,0,0,1-18.28-18.28V279.91a23.81,23.81,0,0,1,6.95-16.81l29.62-29.74,41.45-41.62a18.14,18.14,0,0,1,12.85-5.33h0c16.14,0,24.24,19.5,12.84,30.93l-27.89,28a6.72,6.72,0,0,0,0,9.5l39.51,39.6C447.15,305.93,439,325.6,422.72,325.6Z" style="fill:#292c3d"/><path d="M356.9,204.69h0a19.54,19.54,0,0,1-5.71,13.81l-25.33,25.43a3.24,3.24,0,0,1-5.53-2.28v-37a18.29,18.29,0,0,1,18.29-18.29h0A18.29,18.29,0,0,1,356.9,204.69Z" style="fill:#292c3d"/></g></svg>