<svg xmlns="http://www.w3.org/2000/svg" xmlns:xlink="http://www.w3.org/1999/xlink" viewBox="0 0 512 512"><defs><linearGradient id="linear-gradient" y1="256" x2="512" y2="256" gradientUnits="userSpaceOnUse"><stop offset="0.01" stop-color="#11121e"/><stop offset="1" stop-color="#292c3d"/></linearGradient><linearGradient id="linear-gradient-2" x1="184.45" y1="192.22" x2="110.38" y2="320.52" gradientUnits="userSpaceOnUse"><stop offset="0" stop-color="#ffcc19"/><stop offset="1" stop-color="#ff3b04"/></linearGradient><linearGradient id="linear-gradient-3" x1="275.84" y1="169.61" x2="218.58" y2="268.79" xlink:href="#linear-gradient-2"/><linearGradient id="linear-gradient-4" x1="435.64" y1="176.8" x2="354.76" y2="316.9" xlink:href="#linear-gradient-2"/><linearGradient id="linear-gradient-5" x1="347.83" y1="168.05" x2="317.3" y2="220.92" xlink:href="#linear-gradient-2"/></defs><title>Ark-Builder-Icon-Text-03</title><g id="Layer_2" data-name="Layer 2"><rect width="512" height="512" style="fill:url(#linear-gradient)"/></g><g id="Layer_1" data-name="Layer 1"><path d="M146.54,173a13,13,0,0,0-23.52,0L72.54,281.23a16.53,16.53,0,0,0,15,23.52h0a16.54,16.54,0,0,0,15-9.63l3.92-8.55,14.3-30.81,7.6-16.3a7.33,7.33,0,0,1,13.3,0l7.49,16.27,14.29,30.81,4.07,8.67a16.53,16.53,0,0,0,15,9.51h0a16.53,16.53,0,0,0,15-23.57Z" style="fill:url(#linear-gradient-2)"/><path d="M292.45,258.7a6.68,6.68,0,0,1,.78-7.85,51.08,51.08,0,0,0-38.08-85.29H186.71a15.41,15.41,0,0,0-15.4,15.4h0a15.41,15.41,0,0,0,15.4,15.41h68.61a20.29,20.29,0,0,1,20.43,19.79,19.8,19.8,0,0,1-20,20.11H221a15.4,15.4,0,0,0-15.4,15.4v.74A15.4,15.4,0,0,0,221,267.82h27.73a12.11,12.11,0,0,1,10.46,6L272,295.72a18.19,18.19,0,0,0,15.71,9h0a18.19,18.19,0,0,0,15.7-27.36Z" style="fill:url(#linear-gradient-3)"/><path d="M422.72,304.75h0a18.29,18.29,0,0,1-12.9-5.33l-37.91-37.77a8.8,8.8,0,0,0-12.5.08h0a8.78,8.78,0,0,0-2.51,6.15v18.59a18.27,18.27,0,0,1-18.28,18.28h0a18.28,18.28,0,0,1-18.28-18.28v-27.4a23.83,23.83,0,0,1,6.95-16.82l29.62-29.74,41.45-41.61a18.11,18.11,0,0,1,12.85-5.34h0c16.14,0,24.24,19.51,12.84,30.94l-27.89,28a6.74,6.74,0,0,0,0,9.51l39.51,39.6C447.15,285.09,439,304.75,422.72,304.75Z" style="fill:url(#linear-gradient-4)"/><path d="M356.9,183.84h0a19.53,19.53,0,0,1-5.71,13.81l-25.33,25.43a3.23,3.23,0,0,1-5.53-2.28v-37a18.28,18.28,0,0,1,18.29-18.28h0A18.28,18.28,0,0,1,356.9,183.84Z" style="fill:url(#linear-gradient-5)"/><path d="M151.48,346.44V324.08h9.87a6.75,6.75,0,0,1,6.62,6.65,6.61,6.61,0,0,1-1.43,4,6.52,6.52,0,0,1-4,11.68Zm8.7-13.62a1.94,1.94,0,0,0,0-3.88h-2.83v3.88Zm1.11,8.79a1.93,1.93,0,0,0,1.94-1.93,2,2,0,0,0-1.94-1.94h-3.94v3.87Z" style="fill:#f2f2f2"/><path d="M187.41,337.53a2.92,2.92,0,1,0,5.84,0V324.08h5.91v13.54a8.83,8.83,0,0,1-17.66,0V324.08h5.91Z" style="fill:#f2f2f2"/><path d="M212.55,324.08h5.87v22.36h-5.87Z" style="fill:#f2f2f2"/><path d="M231.87,324.08h5.87v16.46h8v5.9H231.87Z" style="fill:#f2f2f2"/><path d="M258.94,324.08h8.29a11.18,11.18,0,1,1,0,22.36h-8.29Zm5.85,16.58h2.47a5.3,5.3,0,1,0,0-10.59h-2.47Z" style="fill:#f2f2f2"/><path d="M291.42,324.08h13.89v4.86h-8v3.64h7.1v4.95h-7.1v4.11h8v4.8H291.42Z" style="fill:#f2f2f2"/><path d="M331.44,346.44,328,340.51h-3.64v5.93h-5.88V324.08h9.43a8.2,8.2,0,0,1,5.57,14.25l4.74,8.11Zm-7.1-11H328a3.21,3.21,0,1,0,0-6.41h-3.64Z" style="fill:#f2f2f2"/><path d="M355.33,330.94a1.71,1.71,0,0,0-1.7-1.7,1.68,1.68,0,0,0-1.66,1.7,1.66,1.66,0,0,0,1.66,1.67,6.92,6.92,0,1,1-6.88,6.89H352a1.67,1.67,0,0,0,1.66,1.7,1.69,1.69,0,0,0,1.7-1.67,1.71,1.71,0,0,0-1.7-1.7,6.88,6.88,0,1,1,6.89-6.89Z" style="fill:#f2f2f2"/></g></svg>