<?xml version="1.0" encoding="utf-8"?>
<!-- Generator: Adobe Illustrator 22.1.0, SVG Export Plug-In . SVG Version: 6.00 Build 0)  -->
<svg version="1.1" id="Layer_1" xmlns="http://www.w3.org/2000/svg" xmlns:xlink="http://www.w3.org/1999/xlink" x="0px" y="0px"
	 viewBox="0 0 1000 1000" style="enable-background:new 0 0 1000 1000;" xml:space="preserve">
<style type="text/css">
	.st0{display:none;}
	.st1{display:inline;}
	.st2{fill:url(#SVGID_1_);}
	.st3{fill:url(#SVGID_2_);}
	.st4{fill:url(#SVGID_3_);}
	.st5{fill:url(#SVGID_4_);}
	.st6{fill:url(#SVGID_5_);}
	.st7{opacity:0.15;}
	.st8{fill:url(#SVGID_6_);}
	.st9{fill:url(#SVGID_7_);}
	.st10{fill:url(#SVGID_8_);}
	.st11{fill:url(#SVGID_9_);}
	.st12{fill:url(#SVGID_10_);}
	.st13{fill:url(#SVGID_11_);}
	.st14{fill:url(#SVGID_12_);}
	.st15{fill:url(#SVGID_13_);}
	.st16{fill:url(#SVGID_14_);}
	.st17{fill:url(#SVGID_15_);}
	.st18{fill:url(#SVGID_16_);}
	.st19{fill:url(#SVGID_17_);}
</style>
<g id="Layer_2_1_" class="st0">
	<g class="st1">
		
			<linearGradient id="SVGID_1_" gradientUnits="userSpaceOnUse" x1="313.5" y1="50.0341" x2="313.5" y2="1043.4138" gradientTransform="matrix(1 0 0 -1 0 1000)">
			<stop  offset="0" style="stop-color:#E51F40"/>
			<stop  offset="1" style="stop-color:#660E3A"/>
		</linearGradient>
		<polygon class="st2" points="500.3,11.3 126.7,96.2 126.7,989.5 500.3,613.6 		"/>
		
			<linearGradient id="SVGID_2_" gradientUnits="userSpaceOnUse" x1="500.2393" y1="4.1301" x2="503.5091" y2="347.4465" gradientTransform="matrix(1 0 0 -1 0 1000)">
			<stop  offset="0" style="stop-color:#E51F40"/>
			<stop  offset="1" style="stop-color:#660E3A"/>
		</linearGradient>
		<polygon class="st3" points="126.7,989.5 500.3,765.2 873.9,989.5 500.3,613.6 		"/>
		
			<linearGradient id="SVGID_3_" gradientUnits="userSpaceOnUse" x1="696.5551" y1="993.6277" x2="679.6984" y2="112.8638" gradientTransform="matrix(1 0 0 -1 0 1000)">
			<stop  offset="0" style="stop-color:#E51F40"/>
			<stop  offset="1" style="stop-color:#660E3A"/>
		</linearGradient>
		<polygon class="st4" points="500.3,11.3 500.3,613.6 873.9,989.5 873.9,67.9 		"/>
	</g>
</g>
<g id="Layer_3" class="st0">
	<g class="st1">
		
			<linearGradient id="SVGID_4_" gradientUnits="userSpaceOnUse" x1="524.913" y1="795.2585" x2="372.5711" y2="922.7283" gradientTransform="matrix(1 0 0 -1 0 1000)">
			<stop  offset="0" style="stop-color:#98CC19"/>
			<stop  offset="1" style="stop-color:#378E04"/>
		</linearGradient>
		<polygon class="st5" points="243.2,243.6 243.2,243.7 307.4,307.9 989,307.9 		"/>
		
			<linearGradient id="SVGID_5_" gradientUnits="userSpaceOnUse" x1="1047.1321" y1="789.4475" x2="132.7906" y2="782.21" gradientTransform="matrix(1 0 0 -1 0 1000)">
			<stop  offset="0" style="stop-color:#98CC19"/>
			<stop  offset="1" style="stop-color:#378E04"/>
		</linearGradient>
		<polygon class="st6" points="989,121 989,307.9 243.2,243.6 120.5,121 		"/>
		<g class="st7">
			
				<image style="overflow:visible;enable-background:new    ;" width="308" height="260" xlink:href="FA4DC47.png"  transform="matrix(1 0 0 1 632 84)">
			</image>
		</g>
		
			<linearGradient id="SVGID_6_" gradientUnits="userSpaceOnUse" x1="835.76" y1="1831.6417" x2="835.76" y2="938.8907" gradientTransform="matrix(-1 0 0 1 1621.61 -937.8201)">
			<stop  offset="1.891892e-02" style="stop-color:#98CC19"/>
			<stop  offset="0.4108" style="stop-color:#98CC19"/>
			<stop  offset="1" style="stop-color:#378E04"/>
		</linearGradient>
		<polygon class="st8" points="692.4,11.3 879.3,11.3 879.3,879.8 756.6,757.1 756.6,757.1 		"/>
		
			<linearGradient id="SVGID_7_" gradientUnits="userSpaceOnUse" x1="1668.9161" y1="1728.0674" x2="754.5747" y2="1720.8298" gradientTransform="matrix(-1 0 0 1 1621.61 -937.8201)">
			<stop  offset="0" style="stop-color:#98CC19"/>
			<stop  offset="1" style="stop-color:#378E04"/>
		</linearGradient>
		<polygon class="st9" points="10.8,879.8 10.8,692.9 756.6,757.1 879.3,879.8 		"/>
		
			<linearGradient id="SVGID_8_" gradientUnits="userSpaceOnUse" x1="1146.7233" y1="1733.8784" x2="994.3815" y2="1861.3481" gradientTransform="matrix(-1 0 0 1 1621.61 -937.8201)">
			<stop  offset="0" style="stop-color:#98CC19"/>
			<stop  offset="1" style="stop-color:#378E04"/>
		</linearGradient>
		<polygon class="st10" points="10.8,692.9 756.6,757.1 692.4,692.9 		"/>
		
			<linearGradient id="SVGID_9_" gradientUnits="userSpaceOnUse" x1="841.2301" y1="1368.7767" x2="688.8882" y2="1496.2465" gradientTransform="matrix(-1 0 0 1 1621.61 -937.8201)">
			<stop  offset="0" style="stop-color:#98CC19"/>
			<stop  offset="1" style="stop-color:#378E04"/>
		</linearGradient>
		<polygon class="st11" points="692.4,11.3 692.4,692.9 756.6,757.1 756.6,757.1 		"/>
		<g class="st7">
			
				<image style="overflow:visible;enable-background:new    ;" width="308" height="260" xlink:href="FA4DC45.png"  transform="matrix(1 0 0 1 60 656)">
			</image>
		</g>
		
			<linearGradient id="SVGID_10_" gradientUnits="userSpaceOnUse" x1="213.95" y1="893.0529" x2="213.95" y2="0.302" gradientTransform="matrix(1 0 0 -1 0 1000)">
			<stop  offset="1.891892e-02" style="stop-color:#98CC19"/>
			<stop  offset="0.4108" style="stop-color:#98CC19"/>
			<stop  offset="1" style="stop-color:#378E04"/>
		</linearGradient>
		<polygon class="st12" points="307.4,989.5 120.5,989.5 120.5,121 243.2,243.6 243.2,243.7 		"/>
		
			<linearGradient id="SVGID_11_" gradientUnits="userSpaceOnUse" x1="219.4197" y1="430.157" x2="67.0779" y2="557.6265" gradientTransform="matrix(1 0 0 -1 0 1000)">
			<stop  offset="0" style="stop-color:#98CC19"/>
			<stop  offset="1" style="stop-color:#378E04"/>
		</linearGradient>
		<polygon class="st13" points="307.4,989.5 307.4,307.9 243.2,243.7 		"/>
	</g>
</g>
<g>
	<g>
		
			<linearGradient id="SVGID_12_" gradientUnits="userSpaceOnUse" x1="424.4508" y1="476.8581" x2="476.7706" y2="-284.1572" gradientTransform="matrix(0.7877 0.7877 -0.6365 0.6365 308.5432 -252.0656)">
			<stop  offset="0" style="stop-color:#FF00B7"/>
			<stop  offset="1" style="stop-color:#9E005D"/>
		</linearGradient>
		<polygon class="st14" points="965.8,34.6 702.8,297.6 424.5,424.9 245.9,246.3 		"/>
		
			<linearGradient id="SVGID_13_" gradientUnits="userSpaceOnUse" x1="762.307" y1="-211.7859" x2="757.5786" y2="502.215" gradientTransform="matrix(0.7877 0.7877 -0.6365 0.6365 308.5432 -252.0656)">
			<stop  offset="0" style="stop-color:#FF00B7"/>
			<stop  offset="1" style="stop-color:#9E005D"/>
		</linearGradient>
		<polygon class="st15" points="754.1,754.5 575.5,575.9 702.8,297.6 965.8,34.6 		"/>
		
			<linearGradient id="SVGID_14_" gradientUnits="userSpaceOnUse" x1="600.8659" y1="399.7094" x2="609.1328" y2="204.0598" gradientTransform="matrix(0.7877 0.7877 -0.6365 0.6365 308.5432 -252.0656)">
			<stop  offset="0" style="stop-color:#FF00B7"/>
			<stop  offset="1" style="stop-color:#9E005D"/>
		</linearGradient>
		<polygon class="st16" points="575.5,575.9 608.4,392 424.5,424.9 702.8,297.6 		"/>
	</g>
	<g>
		
			<linearGradient id="SVGID_15_" gradientUnits="userSpaceOnUse" x1="96.7522" y1="498.6388" x2="149.0719" y2="-262.3765" gradientTransform="matrix(-0.7877 -0.7877 0.6365 -0.6365 419.4584 1008.5952)">
			<stop  offset="0" style="stop-color:#FF00B7"/>
			<stop  offset="1" style="stop-color:#9E005D"/>
		</linearGradient>
		<polygon class="st17" points="34.2,966.2 297.2,703.2 575.5,575.9 754.1,754.5 		"/>
		
			<linearGradient id="SVGID_16_" gradientUnits="userSpaceOnUse" x1="434.6083" y1="-190.0051" x2="429.8799" y2="523.9957" gradientTransform="matrix(-0.7877 -0.7877 0.6365 -0.6365 419.4584 1008.5952)">
			<stop  offset="0" style="stop-color:#FF00B7"/>
			<stop  offset="1" style="stop-color:#9E005D"/>
		</linearGradient>
		<polygon class="st18" points="245.9,246.3 424.5,424.9 297.2,703.2 34.2,966.2 		"/>
		
			<linearGradient id="SVGID_17_" gradientUnits="userSpaceOnUse" x1="273.1672" y1="421.4901" x2="281.4341" y2="225.8406" gradientTransform="matrix(-0.7877 -0.7877 0.6365 -0.6365 419.4584 1008.5952)">
			<stop  offset="0" style="stop-color:#FF00B7"/>
			<stop  offset="1" style="stop-color:#9E005D"/>
		</linearGradient>
		<polygon class="st19" points="424.5,424.9 391.6,608.8 575.5,575.9 297.2,703.2 		"/>
	</g>
</g>
</svg>
