<?xml version="1.0" encoding="utf-8"?>
<!-- Generator: Adobe Illustrator 22.1.0, SVG Export Plug-In . SVG Version: 6.00 Build 0)  -->
<svg version="1.1" xmlns="http://www.w3.org/2000/svg" xmlns:xlink="http://www.w3.org/1999/xlink" x="0px" y="0px"
	 viewBox="0 0 1500 756.4" style="enable-background:new 0 0 1500 756.4;" xml:space="preserve">
<style type="text/css">
	.st0{display:none;}
	.st1{display:inline;}
	.st2{fill:url(#SVGID_1_);}
	.st3{fill:url(#SVGID_2_);}
	.st4{fill:url(#SVGID_3_);}
	.st5{fill:url(#SVGID_4_);}
	.st6{fill:#292C3D;}
	.st7{fill:url(#SVGID_5_);}
	.st8{fill:url(#SVGID_6_);}
	.st9{fill:url(#SVGID_7_);}
	.st10{fill:url(#SVGID_8_);}
</style>
<g id="Layer_1" class="st0">
	<g class="st1">
		<g>
			<linearGradient id="SVGID_1_" gradientUnits="userSpaceOnUse" x1="472.7748" y1="131.1075" x2="185.7673" y2="628.2192">
				<stop  offset="0" style="stop-color:#FFCC19"/>
				<stop  offset="1" style="stop-color:#FF3B04"/>
			</linearGradient>
			<path class="st2" d="M325.9,56.7c-4.1-8.8-10.7-16-18.6-21.1c-7.9-5-17.2-7.8-27-7.8c-19.6,0-37.4,11.3-45.6,29.1L39.2,476
				c-19.8,42.5,11.2,91.1,58,91.1h0c25,0,47.8-14.6,58.2-37.3l15.2-33.1L226,377.3l29.5-63.1c10.2-21.9,41.4-21.8,51.5,0.1l29,63
				l55.4,119.4l15.8,33.6c10.6,22.5,33.2,36.8,58,36.8h0c47,0,78-48.9,58-91.3L325.9,56.7z"/>
			<linearGradient id="SVGID_2_" gradientUnits="userSpaceOnUse" x1="826.8739" y1="43.4809" x2="604.9962" y2="427.7844">
				<stop  offset="0" style="stop-color:#FFCC19"/>
				<stop  offset="1" style="stop-color:#FF3B04"/>
			</linearGradient>
			<path class="st3" d="M891.2,388.7c-5.7-9.7-4.5-22,3-30.4c31.3-34.9,50.9-81.2,50.9-132C945.2,117,856,27.8,746.7,27.8H481.5
				c-33,0-59.7,26.7-59.7,59.7v0c0,33,26.7,59.7,59.7,59.7h265.8c42.8,0,78.7,33.9,79.2,76.7c0.5,43.6-34.2,77.9-77.7,77.9H614.5
				c-33,0-59.7,26.7-59.7,59.7v2.9c0,33,26.7,59.7,59.7,59.7h107.4c16.7,0,32.1,8.9,40.5,23.3l49.4,84.8c12.6,21.7,35.8,35,60.9,35
				h0c54.4,0,88.3-59,60.8-106L891.2,388.7z"/>
			<linearGradient id="SVGID_3_" gradientUnits="userSpaceOnUse" x1="1446.046" y1="71.3623" x2="1132.6423" y2="614.1934">
				<stop  offset="0" style="stop-color:#FFCC19"/>
				<stop  offset="1" style="stop-color:#FF3B04"/>
			</linearGradient>
			<path class="st4" d="M1396,567.1L1396,567.1c-18.7,0-36.7-7.4-50-20.6l-146.9-146.3c-13.4-13.4-35.2-13.2-48.4,0.3l0,0
				c-6.2,6.4-9.7,14.9-9.7,23.9v72c0,39.1-31.7,70.8-70.8,70.8h-0.1c-39.1,0-70.8-31.7-70.8-70.8V390.1c0-24.4,9.7-47.9,26.9-65.2
				l114.8-115.2l160.6-161.2c13.2-13.2,31.1-20.7,49.8-20.7h0c62.5,0,93.9,75.6,49.8,119.9L1293,256c-10.1,10.2-10.1,26.6,0,36.8
				l153.1,153.4C1490.6,490.9,1459,567.1,1396,567.1z"/>
			<linearGradient id="SVGID_4_" gradientUnits="userSpaceOnUse" x1="1105.8131" y1="37.4304" x2="987.5293" y2="242.3041">
				<stop  offset="0" style="stop-color:#FFCC19"/>
				<stop  offset="1" style="stop-color:#FF3B04"/>
			</linearGradient>
			<path class="st5" d="M1140.9,98.6L1140.9,98.6c0,20.1-8,39.3-22.1,53.5l-98.1,98.5c-7.9,7.9-21.4,2.3-21.4-8.9V98.6
				c0-39.1,31.7-70.8,70.8-70.8h0C1109.2,27.8,1140.9,59.5,1140.9,98.6z"/>
		</g>
		<g>
			<path class="st6" d="M345,728.7V642h38.2c13.9,0,25.6,11.9,25.6,25.8c0,5.9-2.2,11.3-5.5,15.6c5.9,4.7,9.8,12,9.8,19.9
				c0,13.7-11.7,25.4-25.4,25.4H345z M378.8,675.9c4.2,0,7.5-3.4,7.5-7.5s-3.4-7.5-7.5-7.5h-11v15H378.8z M383,709.9
				c4.2,0,7.5-3.3,7.5-7.5s-3.6-7.5-7.5-7.5h-15.3v15H383z"/>
			<path class="st6" d="M484.2,694.1c0,6.2,5.1,11.3,11.3,11.3c6.2,0,11.3-5.1,11.3-11.3V642h22.9v52.5c0,19.1-15.4,34.2-34.2,34.2
				c-19.1,0-34.2-15.1-34.2-34.2V642h22.9V694.1z"/>
			<path class="st6" d="M581.6,642h22.8v86.7h-22.8V642z"/>
			<path class="st6" d="M656.5,642h22.8v63.8h31.2v22.9h-54V642z"/>
			<path class="st6" d="M761.4,642h32.1c23.9,0,43.3,19.4,43.3,43.3c0,23.9-19.4,43.3-43.3,43.3h-32.1V642z M784.1,706.2h9.6
				c11.3,0,20.6-9.2,20.6-20.6c0-11.2-9.2-20.4-20.6-20.4h-9.6V706.2z"/>
			<path class="st6" d="M887.2,642h53.8v18.8H910v14.1h27.5v19.2H910v15.9h31.1v18.6h-53.8V642z"/>
			<path class="st6" d="M1042.3,728.7l-13.4-23h-14.1v23H992V642h36.5c17.6,0,31.9,14.3,31.9,31.9c0,9.2-4,17.6-10.3,23.3l18.4,31.4
				H1042.3z M1014.8,686h14.1c6.9,0,12.5-5.4,12.5-12.4c0-6.9-5.5-12.5-12.5-12.5h-14.1V686z"/>
			<g>
				<path class="st6" d="M1134.9,668.6c0-3.6-3-6.6-6.6-6.6s-6.5,3-6.5,6.6s2.9,6.5,6.5,6.5c8.4,0,16.1,4,20.9,10.3
					c3.7,4.6,5.8,10.4,5.8,16.8c0,14.8-11.9,26.6-26.7,26.6s-26.7-11.7-26.7-26.9h20.2c0,3.7,2.9,6.6,6.5,6.6s6.6-2.9,6.6-6.5
					s-3-6.6-6.6-6.6c-14.8,0-26.6-11.8-26.6-26.6c0-14.8,11.8-26.7,26.6-26.7s26.7,11.8,26.7,26.6H1134.9z"/>
			</g>
		</g>
	</g>
</g>
<g id="Layer_2">
	<g>
		<linearGradient id="SVGID_5_" gradientUnits="userSpaceOnUse" x1="472.7748" y1="211.8833" x2="185.7673" y2="708.9949">
			<stop  offset="0" style="stop-color:#FFCC19"/>
			<stop  offset="1" style="stop-color:#FF3B04"/>
		</linearGradient>
		<path class="st7" d="M325.9,137.5c-4.1-8.8-10.7-16-18.6-21.1c-7.9-5-17.2-7.8-27-7.8c-19.6,0-37.4,11.3-45.6,29.1L39.2,556.7
			c-19.8,42.5,11.2,91.1,58,91.1h0c25,0,47.8-14.6,58.2-37.3l15.2-33.1L226,458l29.5-63.1c10.2-21.9,41.4-21.8,51.5,0.1l29,63
			l55.4,119.4l15.8,33.6c10.6,22.5,33.2,36.8,58,36.8h0c47,0,78-48.9,58-91.3L325.9,137.5z"/>
		<linearGradient id="SVGID_6_" gradientUnits="userSpaceOnUse" x1="826.8739" y1="124.2566" x2="604.9962" y2="508.5601">
			<stop  offset="0" style="stop-color:#FFCC19"/>
			<stop  offset="1" style="stop-color:#FF3B04"/>
		</linearGradient>
		<path class="st8" d="M891.2,469.5c-5.7-9.7-4.5-22,3-30.4c31.3-34.9,50.9-81.2,50.9-132c0-109.3-89.2-198.5-198.5-198.5H481.5
			c-33,0-59.7,26.7-59.7,59.7v0c0,33,26.7,59.7,59.7,59.7h265.8c42.8,0,78.7,33.9,79.2,76.7c0.5,43.6-34.2,77.9-77.7,77.9H614.5
			c-33,0-59.7,26.7-59.7,59.7v2.9c0,33,26.7,59.7,59.7,59.7h107.4c16.7,0,32.1,8.9,40.5,23.3l49.4,84.8c12.6,21.7,35.8,35,60.9,35h0
			c54.4,0,88.3-59,60.8-106L891.2,469.5z"/>
		<linearGradient id="SVGID_7_" gradientUnits="userSpaceOnUse" x1="1446.046" y1="152.138" x2="1132.6423" y2="694.9691">
			<stop  offset="0" style="stop-color:#FFCC19"/>
			<stop  offset="1" style="stop-color:#FF3B04"/>
		</linearGradient>
		<path class="st9" d="M1396,647.9L1396,647.9c-18.7,0-36.7-7.4-50-20.6l-146.9-146.3c-13.4-13.4-35.2-13.2-48.4,0.3l0,0
			c-6.2,6.4-9.7,14.9-9.7,23.9v72c0,39.1-31.7,70.8-70.8,70.8h-0.1c-39.1,0-70.8-31.7-70.8-70.8V470.9c0-24.4,9.7-47.9,26.9-65.2
			l114.8-115.2l160.6-161.2c13.2-13.2,31.1-20.7,49.8-20.7h0c62.5,0,93.9,75.6,49.8,119.9l-108,108.4c-10.1,10.2-10.1,26.6,0,36.8
			l153.1,153.4C1490.6,571.7,1459,647.9,1396,647.9z"/>
		<linearGradient id="SVGID_8_" gradientUnits="userSpaceOnUse" x1="1105.8131" y1="118.2062" x2="987.5293" y2="323.0798">
			<stop  offset="0" style="stop-color:#FFCC19"/>
			<stop  offset="1" style="stop-color:#FF3B04"/>
		</linearGradient>
		<path class="st10" d="M1140.9,179.4L1140.9,179.4c0,20.1-8,39.3-22.1,53.5l-98.1,98.5c-7.9,7.9-21.4,2.3-21.4-8.9V179.4
			c0-39.1,31.7-70.8,70.8-70.8h0C1109.2,108.6,1140.9,140.3,1140.9,179.4z"/>
	</g>
</g>
</svg>
