<?xml version="1.0" encoding="utf-8"?>
<!-- Generator: Adobe Illustrator 22.1.0, SVG Export Plug-In . SVG Version: 6.00 Build 0)  -->
<svg version="1.1" xmlns="http://www.w3.org/2000/svg" xmlns:xlink="http://www.w3.org/1999/xlink" x="0px" y="0px"
	 viewBox="0 0 965.7 498.4" style="enable-background:new 0 0 965.7 498.4;" xml:space="preserve">
<style type="text/css">
	.st0{display:none;}
	.st1{display:inline;}
	.st2{fill:url(#SVGID_1_);}
	.st3{fill:url(#SVGID_2_);}
	.st4{fill:url(#SVGID_3_);}
	.st5{fill:url(#SVGID_4_);}
	.st6{fill:#292C3D;}
	.st7{fill:url(#SVGID_5_);}
	.st8{fill:url(#SVGID_6_);}
	.st9{fill:url(#SVGID_7_);}
	.st10{fill:url(#SVGID_8_);}
	.st11{fill:url(#SVGID_9_);}
	.st12{fill:url(#SVGID_10_);}
	.st13{fill:url(#SVGID_11_);}
	.st14{fill:url(#SVGID_12_);}
</style>
<g id="Layer_1" class="st0">
	<g class="st1">
		<g>
			<linearGradient id="SVGID_1_" gradientUnits="userSpaceOnUse" x1="302.2528" y1="84.2504" x2="115.9038" y2="407.0164">
				<stop  offset="0" style="stop-color:#13B1EA"/>
				<stop  offset="1" style="stop-color:#2340E8"/>
			</linearGradient>
			<path class="st2" d="M206.9,35.9c-2.7-5.7-6.9-10.4-12.1-13.7c-5.1-3.3-11.2-5.1-17.5-5.1c-12.7,0-24.3,7.4-29.6,18.9l-127,272.1
				c-12.9,27.6,7.3,59.2,37.7,59.2h0c16.3,0,31-9.5,37.8-24.2l9.9-21.5l36-77.5l19.1-41c6.6-14.2,26.9-14.2,33.5,0.1l18.9,40.9
				l35.9,77.5l10.2,21.8c6.9,14.6,21.5,23.9,37.6,23.9h0c30.5,0,50.6-31.7,37.6-59.3L206.9,35.9z"/>
			<linearGradient id="SVGID_2_" gradientUnits="userSpaceOnUse" x1="532.1633" y1="27.356" x2="388.1019" y2="276.8776">
				<stop  offset="0" style="stop-color:#13B1EA"/>
				<stop  offset="1" style="stop-color:#2340E8"/>
			</linearGradient>
			<path class="st3" d="M574,251.5c-3.7-6.3-2.9-14.3,2-19.8C596.2,209.1,609,179,609,146c0-71-57.9-128.9-128.9-128.9H307.9
				c-21.4,0-38.8,17.4-38.8,38.8v0c0,21.4,17.4,38.8,38.8,38.8h172.6c27.8,0,51.1,22,51.4,49.8c0.3,28.3-22.2,50.6-50.4,50.6h-87.3
				c-21.4,0-38.8,17.4-38.8,38.8v1.9c0,21.4,17.4,38.8,38.8,38.8H464c10.8,0,20.9,5.8,26.3,15.1l32.1,55.1
				c8.2,14.1,23.2,22.7,39.5,22.7h0c35.3,0,57.3-38.3,39.5-68.8L574,251.5z"/>
			<linearGradient id="SVGID_3_" gradientUnits="userSpaceOnUse" x1="934.1809" y1="45.4589" x2="730.6934" y2="397.9097">
				<stop  offset="0" style="stop-color:#13B1EA"/>
				<stop  offset="1" style="stop-color:#2340E8"/>
			</linearGradient>
			<path class="st4" d="M901.7,367.3L901.7,367.3c-12.2,0-23.8-4.8-32.4-13.4l-95.4-95c-8.7-8.7-22.8-8.6-31.4,0.2h0
				c-4.1,4.1-6.3,9.7-6.3,15.5v46.8c0,25.4-20.6,46-46,46h0c-25.4,0-46-20.6-46-46v-68.9c0-15.9,6.3-31.1,17.5-42.3l74.5-74.8
				L840.4,30.6c8.6-8.6,20.2-13.4,32.3-13.4h0c40.6,0,61,49.1,32.3,77.8l-70.2,70.4c-6.6,6.6-6.6,17.3,0,23.9l99.4,99.6
				C963.1,317.9,942.6,367.3,901.7,367.3z"/>
			<linearGradient id="SVGID_4_" gradientUnits="userSpaceOnUse" x1="713.2736" y1="23.4275" x2="636.4739" y2="156.4484">
				<stop  offset="0" style="stop-color:#13B1EA"/>
				<stop  offset="1" style="stop-color:#2340E8"/>
			</linearGradient>
			<path class="st5" d="M736.1,63.2L736.1,63.2c0,13-5.2,25.5-14.4,34.8l-63.7,64c-5.1,5.1-13.9,1.5-13.9-5.7v-93
				c0-25.4,20.6-46,46-46h0C715.5,17.2,736.1,37.8,736.1,63.2z"/>
		</g>
		<g>
			<g>
				<path class="st6" d="M269.7,481.5L230,441.7v39.8h-22.1v-84.2h9l39.8,39.7v-39.7h22.1v84.2H269.7z"/>
				<path class="st6" d="M290.1,481.5l39.3-84.2h10l39.6,84.2h-22.1l-5.2-11h-34.4l-5.1,11H290.1z M325.9,451.9h17.2l-8.5-18.5
					L325.9,451.9z"/>
				<path class="st6" d="M465.7,397.2l-39.2,84.3h-10.1l-39.3-84.3h22.2l22.1,47.9l22.2-47.9H465.7z"/>
				<path class="st6" d="M475.2,397.3h22.1v84.2h-22.1V397.3z"/>
				<path class="st6" d="M597.1,436.3v3.1c0,23.2-18.9,42.1-42.1,42.1c-23.2,0-42-18.9-42-42.1s18.7-42.1,42-42.1
					c11.6,0,22,4.7,29.6,12.2l-15.6,15.5c-3.6-3.4-8.3-5.6-14-5.6c-10.5,0-19.9,8.4-19.9,20s9.5,20,19.9,20c6.6,0,12.8-3.3,16.3-8.3
					H555v-14.8H597.1z"/>
				<path class="st6" d="M603.6,481.5l39.3-84.2h10l39.6,84.2h-22.1l-5.2-11h-34.4l-5.1,11H603.6z M639.4,451.9h17.2l-8.5-18.5
					L639.4,451.9z"/>
				<path class="st6" d="M696.3,397.2h66.3v22h-22.3v62.3h-22.1v-62.3h-21.9V397.2z"/>
				<path class="st6" d="M813.7,397.3c23.2,0,42.1,19,42.1,42.2c0,23.2-18.9,42-42.1,42c-23.2,0-42-18.7-42-42
					C771.7,416.3,790.4,397.3,813.7,397.3z M813.7,419.3c-11,0-20,9-20,20.1c0,11,9,20.1,20,20.1c11.1,0,20.1-9.1,20.1-20.1
					C833.7,428.3,824.8,419.3,813.7,419.3z"/>
				<path class="st6" d="M919.9,481.5l-13-22.3h-13.7v22.3h-22.1v-84.2h35.5c17.1,0,31,13.9,31,31c0,9-3.9,17.1-10,22.7l17.8,30.5
					H919.9z M893.2,440.1h13.7c6.7,0,12.1-5.3,12.1-12c0-6.7-5.4-12.1-12.1-12.1h-13.7V440.1z"/>
			</g>
		</g>
	</g>
</g>
<g id="Layer_3" class="st0">
	<g class="st1">
		<g>
			<linearGradient id="SVGID_5_" gradientUnits="userSpaceOnUse" x1="301.8699" y1="84.2504" x2="115.5209" y2="407.0164">
				<stop  offset="0" style="stop-color:#E51F40"/>
				<stop  offset="1" style="stop-color:#660E3A"/>
			</linearGradient>
			<path class="st7" d="M206.5,35.9c-2.7-5.7-6.9-10.4-12.1-13.7c-5.1-3.3-11.2-5.1-17.5-5.1c-12.7,0-24.3,7.4-29.6,18.9l-127,272.1
				c-12.9,27.6,7.3,59.2,37.7,59.2h0c16.3,0,31-9.5,37.8-24.2l9.9-21.5l36-77.5l19.1-41c6.6-14.2,26.9-14.2,33.5,0.1l18.9,40.9
				l35.9,77.5l10.2,21.8c6.9,14.6,21.5,23.9,37.6,23.9h0c30.5,0,50.6-31.7,37.6-59.3L206.5,35.9z"/>
			<linearGradient id="SVGID_6_" gradientUnits="userSpaceOnUse" x1="531.7803" y1="27.356" x2="387.719" y2="276.8776">
				<stop  offset="0" style="stop-color:#E51F40"/>
				<stop  offset="1" style="stop-color:#660E3A"/>
			</linearGradient>
			<path class="st8" d="M573.6,251.5c-3.7-6.3-2.9-14.3,2-19.8c20.3-22.7,33.1-52.7,33.1-85.7c0-71-57.9-128.9-128.9-128.9H307.6
				c-21.4,0-38.8,17.4-38.8,38.8v0c0,21.4,17.4,38.8,38.8,38.8h172.6c27.8,0,51.1,22,51.4,49.8c0.3,28.3-22.2,50.6-50.4,50.6h-87.3
				c-21.4,0-38.8,17.4-38.8,38.8v1.9c0,21.4,17.4,38.8,38.8,38.8h69.8c10.8,0,20.9,5.8,26.3,15.1l32.1,55.1
				c8.2,14.1,23.2,22.7,39.5,22.7h0c35.3,0,57.3-38.3,39.5-68.8L573.6,251.5z"/>
			<linearGradient id="SVGID_7_" gradientUnits="userSpaceOnUse" x1="933.7979" y1="45.4589" x2="730.3104" y2="397.9097">
				<stop  offset="0" style="stop-color:#E51F40"/>
				<stop  offset="1" style="stop-color:#660E3A"/>
			</linearGradient>
			<path class="st9" d="M901.3,367.3L901.3,367.3c-12.2,0-23.8-4.8-32.4-13.4l-95.4-95c-8.7-8.7-22.8-8.6-31.4,0.2l0,0
				c-4.1,4.1-6.3,9.7-6.3,15.5v46.8c0,25.4-20.6,46-46,46h0c-25.4,0-46-20.6-46-46v-68.9c0-15.9,6.3-31.1,17.5-42.3l74.5-74.8
				L840,30.6c8.6-8.6,20.2-13.4,32.3-13.4h0c40.6,0,61,49.1,32.3,77.8l-70.2,70.4c-6.6,6.6-6.6,17.3,0,23.9l99.4,99.6
				C962.7,317.9,942.2,367.3,901.3,367.3z"/>
			<linearGradient id="SVGID_8_" gradientUnits="userSpaceOnUse" x1="712.8907" y1="23.4275" x2="636.091" y2="156.4484">
				<stop  offset="0" style="stop-color:#E51F40"/>
				<stop  offset="1" style="stop-color:#660E3A"/>
			</linearGradient>
			<path class="st10" d="M735.7,63.2L735.7,63.2c0,13-5.2,25.5-14.4,34.8l-63.7,64c-5.1,5.1-13.9,1.5-13.9-5.7v-93
				c0-25.4,20.6-46,46-46h0C715.1,17.2,735.7,37.8,735.7,63.2z"/>
		</g>
		<g>
			<path class="st6" d="M627.9,423.1c0-3.5-2.9-6.4-6.4-6.4c-3.5,0-6.3,2.9-6.3,6.4s2.8,6.3,6.3,6.3c8.2,0,15.6,3.9,20.3,10
				c3.6,4.5,5.6,10.1,5.6,16.3c0,14.4-11.6,25.8-25.9,25.8s-25.9-11.3-25.9-26.1h19.6c0,3.6,2.8,6.4,6.3,6.4c3.5,0,6.4-2.8,6.4-6.3
				s-2.9-6.4-6.4-6.4c-14.4,0-25.8-11.4-25.8-25.8c0-14.4,11.4-25.9,25.8-25.9s25.9,11.4,25.9,25.8H627.9z"/>
			<path class="st6" d="M685.2,397.3v30H712v-30h22.1v84.2H712v-32.1h-26.7v32.1h-22.1v-84.2H685.2z"/>
			<path class="st6" d="M751,397.3h52.3v18.3h-30.2v13.7h26.7v18.6h-26.7v15.5h30.2v18.1H751V397.3z"/>
			<path class="st6" d="M819.1,397.3h22.1v61.9h30.3v22.2h-52.4V397.3z"/>
			<path class="st6" d="M887.3,397.3h52.7v18.2h-30.6v13.7h27v18.7h-27v33.5h-22.1V397.3z"/>
		</g>
	</g>
</g>
<g id="Layer_2">
	<g>
		<g>
			<linearGradient id="SVGID_9_" gradientUnits="userSpaceOnUse" x1="301.4869" y1="84.2504" x2="115.1379" y2="407.0164">
				<stop  offset="0" style="stop-color:#98CC19"/>
				<stop  offset="1" style="stop-color:#378E04"/>
			</linearGradient>
			<path class="st11" d="M206.1,35.9c-2.7-5.7-6.9-10.4-12.1-13.7c-5.1-3.3-11.2-5.1-17.5-5.1c-12.7,0-24.3,7.4-29.6,18.9L20,308.2
				c-12.9,27.6,7.3,59.2,37.7,59.2h0c16.3,0,31-9.5,37.8-24.2l9.9-21.5l36-77.5l19.1-41c6.6-14.2,26.9-14.2,33.5,0.1l18.9,40.9
				l35.9,77.5l10.2,21.8c6.9,14.6,21.5,23.9,37.6,23.9h0c30.5,0,50.6-31.7,37.6-59.3L206.1,35.9z"/>
			<linearGradient id="SVGID_10_" gradientUnits="userSpaceOnUse" x1="531.3973" y1="27.356" x2="387.336" y2="276.8776">
				<stop  offset="0" style="stop-color:#98CC19"/>
				<stop  offset="1" style="stop-color:#378E04"/>
			</linearGradient>
			<path class="st12" d="M573.2,251.5c-3.7-6.3-2.9-14.3,2-19.8c20.3-22.7,33.1-52.7,33.1-85.7c0-71-57.9-128.9-128.9-128.9H307.2
				c-21.4,0-38.8,17.4-38.8,38.8v0c0,21.4,17.4,38.8,38.8,38.8h172.6c27.8,0,51.1,22,51.4,49.8c0.3,28.3-22.2,50.6-50.4,50.6h-87.3
				c-21.4,0-38.8,17.4-38.8,38.8v1.9c0,21.4,17.4,38.8,38.8,38.8h69.8c10.8,0,20.9,5.8,26.3,15.1l32.1,55.1
				c8.2,14.1,23.2,22.7,39.5,22.7h0c35.3,0,57.3-38.3,39.5-68.8L573.2,251.5z"/>
			<linearGradient id="SVGID_11_" gradientUnits="userSpaceOnUse" x1="933.415" y1="45.4589" x2="729.9274" y2="397.9097">
				<stop  offset="0" style="stop-color:#98CC19"/>
				<stop  offset="1" style="stop-color:#378E04"/>
			</linearGradient>
			<path class="st13" d="M900.9,367.3L900.9,367.3c-12.2,0-23.8-4.8-32.4-13.4l-95.4-95c-8.7-8.7-22.8-8.6-31.4,0.2l0,0
				c-4.1,4.1-6.3,9.7-6.3,15.5v46.8c0,25.4-20.6,46-46,46h0c-25.4,0-46-20.6-46-46v-68.9c0-15.9,6.3-31.1,17.5-42.3l74.5-74.8
				L839.6,30.6c8.6-8.6,20.2-13.4,32.3-13.4h0c40.6,0,61,49.1,32.3,77.8l-70.2,70.4c-6.6,6.6-6.6,17.3,0,23.9l99.4,99.6
				C962.4,317.9,941.8,367.3,900.9,367.3z"/>
			<linearGradient id="SVGID_12_" gradientUnits="userSpaceOnUse" x1="712.5077" y1="23.4275" x2="635.7081" y2="156.4484">
				<stop  offset="0" style="stop-color:#98CC19"/>
				<stop  offset="1" style="stop-color:#378E04"/>
			</linearGradient>
			<path class="st14" d="M735.3,63.2L735.3,63.2c0,13-5.2,25.5-14.4,34.8l-63.7,64c-5.1,5.1-13.9,1.5-13.9-5.7v-93
				c0-25.4,20.6-46,46-46h0C714.7,17.2,735.3,37.8,735.3,63.2z"/>
		</g>
		<g>
			<path class="st6" d="M431.6,481.5l-13-22.3H405v22.3h-22.1v-84h35.4c17,0,30.9,13.9,30.9,30.9c0,9-3.9,17-10,22.6l17.8,30.5
				H431.6z M405,440.1h13.7c6.7,0,12.1-5.3,12.1-12c0-6.7-5.4-12.1-12.1-12.1H405V440.1z"/>
			<path class="st6" d="M467.9,397.5h52.2v18.3H490v13.7h26.7V448H490v15.5h30.1v18h-52.2V397.5z"/>
			<path class="st6" d="M534.2,397.3h66.2v22h-22.3v62.2H556v-62.2h-21.9V397.3z"/>
			<path class="st6" d="M651.4,397.5c23.2,0,42,18.9,42,42.1s-18.8,41.9-42,41.9c-23.2,0-41.9-18.7-41.9-41.9
				S628.2,397.5,651.4,397.5z M651.4,419.4c-11,0-19.9,9-19.9,20.1c0,11,9,20.1,19.9,20.1c11.1,0,20.1-9.1,20.1-20.1
				C671.4,428.4,662.5,419.4,651.4,419.4z"/>
			<path class="st6" d="M728.6,448c0,6.1,4.9,11,11,11c6.1,0,11-4.9,11-11v-50.5h22.2v50.9c0,18.5-14.9,33.2-33.2,33.2
				c-18.5,0-33.2-14.7-33.2-33.2v-50.9h22.2V448z"/>
			<path class="st6" d="M843.7,425.2c-3.5-3.5-8.4-5.5-14.1-5.5c-11.4,0-19.7,8.3-19.7,19.7c0,11.4,8.3,19.7,19.7,19.7
				c5.7,0,10.6-2,14.1-5.6l15.7,15.5c-7.6,7.6-18.2,12.4-29.8,12.4c-23.2,0-42-18.8-42-42c0-23.2,18.8-42,42-42
				c11.5,0,22,4.6,29.6,12.2L843.7,425.2z"/>
			<path class="st6" d="M898.2,397.5v29.9h26.7v-29.9H947v84h-22.1v-32h-26.7v32h-22.1v-84H898.2z"/>
		</g>
	</g>
</g>
</svg>
