<svg id="Layer_1" data-name="Layer 1" xmlns="http://www.w3.org/2000/svg" viewBox="0 0 1000 1000"><title> Ark-Compass-Logo-Only-bk</title><polygon points="901.07 98.93 674.62 325.38 434.95 434.95 281.24 281.24 901.07 98.93" style="fill:#191b28"/><polygon points="718.76 718.76 565.03 565.03 674.62 325.38 901.07 98.93 718.76 718.76" style="fill:#292c3d"/><polygon points="565.03 565.03 593.32 406.69 434.95 434.95 674.62 325.38 565.03 565.03" style="fill:#11121e"/><polygon points="98.93 901.07 325.38 674.62 565.05 565.05 718.76 718.76 98.93 901.07" style="fill:#191b28"/><polygon points="281.24 281.24 434.97 434.97 325.38 674.62 98.93 901.07 281.24 281.24" style="fill:#292c3d"/><polygon points="434.97 434.97 406.69 593.32 565.05 565.05 325.38 674.62 434.97 434.97" style="fill:#11121e"/></svg>