<svg id="Layer_1" data-name="Layer 1" xmlns="http://www.w3.org/2000/svg" xmlns:xlink="http://www.w3.org/1999/xlink" viewBox="0 0 1000 1000"><defs><linearGradient id="linear-gradient" x1="3026.63" y1="1994.29" x2="3046.96" y2="1698.66" gradientTransform="matrix(0.79, 0.79, -0.64, 0.64, -965.1, -3198.06)" gradientUnits="userSpaceOnUse"><stop offset="0" stop-color="#ff00b7"/><stop offset="1" stop-color="#9e005d"/></linearGradient><linearGradient id="linear-gradient-2" x1="3157.88" y1="1726.78" x2="3156.04" y2="2004.14" xlink:href="#linear-gradient"/><linearGradient id="linear-gradient-3" x1="3095.16" y1="1964.32" x2="3098.37" y2="1888.32" xlink:href="#linear-gradient"/><linearGradient id="linear-gradient-4" x1="2590.24" y1="-6693.04" x2="2610.57" y2="-6988.67" gradientTransform="matrix(-0.79, -0.79, 0.64, -0.64, 6575.1, -1675.41)" xlink:href="#linear-gradient"/><linearGradient id="linear-gradient-5" x1="2721.49" y1="-6960.55" x2="2719.65" y2="-6683.19" gradientTransform="matrix(-0.79, -0.79, 0.64, -0.64, 6575.1, -1675.41)" xlink:href="#linear-gradient"/><linearGradient id="linear-gradient-6" x1="2658.77" y1="-6723.01" x2="2661.98" y2="-6799.01" gradientTransform="matrix(-0.79, -0.79, 0.64, -0.64, 6575.1, -1675.41)" xlink:href="#linear-gradient"/><linearGradient id="linear-gradient-7" x1="584.11" y1="401.62" x2="473.01" y2="594.05" gradientTransform="matrix(1, 0, 0, 1, 0, 0)" xlink:href="#linear-gradient"/><linearGradient id="linear-gradient-8" x1="721.17" y1="367.7" x2="635.29" y2="516.46" gradientTransform="matrix(1, 0, 0, 1, 0, 0)" xlink:href="#linear-gradient"/><linearGradient id="linear-gradient-9" x1="960.84" y1="378.5" x2="839.53" y2="588.62" gradientTransform="matrix(1, 0, 0, 1, 0, 0)" xlink:href="#linear-gradient"/><linearGradient id="linear-gradient-10" x1="829.14" y1="365.36" x2="783.36" y2="444.67" gradientTransform="matrix(1, 0, 0, 1, 0, 0)" xlink:href="#linear-gradient"/></defs><title>Ark-Compass-Logo2-Text2</title><polygon points="392.96 319.06 290.79 421.22 182.67 470.65 113.33 401.31 392.96 319.06" style="fill:url(#linear-gradient)"/><polygon points="310.71 598.69 241.36 529.34 290.79 421.22 392.96 319.06 310.71 598.69" style="fill:url(#linear-gradient-2)"/><polygon points="241.36 529.34 254.12 457.9 182.67 470.65 290.79 421.22 241.36 529.34" style="fill:url(#linear-gradient-3)"/><polygon points="31.08 680.94 133.24 578.78 241.37 529.35 310.71 598.69 31.08 680.94" style="fill:url(#linear-gradient-4)"/><polygon points="113.33 401.31 182.68 470.66 133.24 578.78 31.08 680.94 113.33 401.31" style="fill:url(#linear-gradient-5)"/><polygon points="182.68 470.66 169.92 542.1 241.37 529.35 133.24 578.78 182.68 470.66" style="fill:url(#linear-gradient-6)"/><path d="M527.25,372.82a19.48,19.48,0,0,0-35.28.06L416.26,535.11a24.8,24.8,0,0,0,22.47,35.28h0a24.78,24.78,0,0,0,22.53-14.45l5.89-12.82,21.44-46.21L500,472.47a11,11,0,0,1,20,0l11.24,24.4,21.42,46.21,6.11,13a24.8,24.8,0,0,0,22.45,14.26h0A24.8,24.8,0,0,0,603.61,535Z" style="fill:url(#linear-gradient-7)"/><path d="M746.08,501.33a10,10,0,0,1,1.17-11.78,76.61,76.61,0,0,0-57.11-127.92H587.5a23.11,23.11,0,0,0-23.1,23.11h0a23.1,23.1,0,0,0,23.1,23.1H690.39c16.55,0,30.45,13.13,30.65,29.68A29.7,29.7,0,0,1,691,467.68H639a23.11,23.11,0,0,0-23.11,23.11v1.11A23.11,23.11,0,0,0,639,515h41.59a18.14,18.14,0,0,1,15.68,9l19.14,32.84a27.29,27.29,0,0,0,23.56,13.54h0a27.27,27.27,0,0,0,23.54-41Z" style="fill:url(#linear-gradient-8)"/><path d="M941.46,570.39h0a27.42,27.42,0,0,1-19.35-8l-56.86-56.65a13.2,13.2,0,0,0-18.74.11h0a13.2,13.2,0,0,0-3.77,9.24V543a27.41,27.41,0,0,1-27.41,27.41h0A27.41,27.41,0,0,1,787.9,543v-41.1a35.76,35.76,0,0,1,10.42-25.23l44.42-44.6,62.16-62.41a27.2,27.2,0,0,1,19.28-8h0c24.21,0,36.35,29.26,19.25,46.4l-41.82,42a10.1,10.1,0,0,0,0,14.25l59.25,59.39C978.1,540.9,965.86,570.39,941.46,570.39Z" style="fill:url(#linear-gradient-9)"/><path d="M842.74,389.05h0a29.36,29.36,0,0,1-8.56,20.72l-38,38.14a4.85,4.85,0,0,1-8.29-3.43V389.05a27.42,27.42,0,0,1,27.42-27.42h0A27.42,27.42,0,0,1,842.74,389.05Z" style="fill:url(#linear-gradient-10)"/><path d="M661.12,604.87a11.69,11.69,0,0,0-8.43-3.28,11.78,11.78,0,1,0,8.43,20.2l9.36,9.24a25.08,25.08,0,1,1-17.79-42.75,24.81,24.81,0,0,1,17.66,7.29Z" style="fill:#f2f2f2"/><path d="M703.53,588.28a25.09,25.09,0,1,1-25,25.15A25.15,25.15,0,0,1,703.53,588.28Zm0,13.11a12,12,0,1,0,12,12A11.94,11.94,0,0,0,703.53,601.39Z" style="fill:#f2f2f2"/><path d="M764.21,606.88l20.4-18.6h6v50.17H777.32V612.7l-13.11,12L751,612.76v25.69H737.79V588.28h6Z" style="fill:#f2f2f2"/><path d="M800.67,588.28h21.14a18.43,18.43,0,0,1,.27,36.86h-8.23v13.31H800.67Zm13.18,25.49H822a7.2,7.2,0,1,0,0-14.39h-8.16Z" style="fill:#f2f2f2"/><path d="M841.35,638.45l23.41-50.17h6l23.61,50.17H881.15l-3.08-6.56H857.54l-3,6.56Zm21.34-17.66h10.23l-5.08-11Z" style="fill:#f2f2f2"/><path d="M917.81,603.66a3.85,3.85,0,0,0-3.81-3.81,3.8,3.8,0,0,0-3.75,3.81,3.74,3.74,0,0,0,3.75,3.75,15.52,15.52,0,1,1-15.45,15.45h11.7a3.78,3.78,0,1,0,7.56.07,3.85,3.85,0,0,0-3.81-3.81,15.42,15.42,0,1,1,15.45-15.46Z" style="fill:#f2f2f2"/><path d="M957.28,603.66a3.85,3.85,0,0,0-3.81-3.81,3.8,3.8,0,0,0-3.75,3.81,3.74,3.74,0,0,0,3.75,3.75A15.52,15.52,0,1,1,938,622.86h11.7a3.78,3.78,0,1,0,7.56.07,3.85,3.85,0,0,0-3.81-3.81,15.42,15.42,0,1,1,15.45-15.46Z" style="fill:#f2f2f2"/></svg>