<svg id="Layer_1" data-name="Layer 1" xmlns="http://www.w3.org/2000/svg" xmlns:xlink="http://www.w3.org/1999/xlink" viewBox="0 0 1000 1000"><defs><linearGradient id="linear-gradient" x1="557.91" y1="401.58" x2="446.81" y2="594.01" gradientUnits="userSpaceOnUse"><stop offset="0" stop-color="#e51f40"/><stop offset="1" stop-color="#660e3a"/></linearGradient><linearGradient id="linear-gradient-2" x1="694.97" y1="367.66" x2="609.09" y2="516.42" xlink:href="#linear-gradient"/><linearGradient id="linear-gradient-3" x1="934.64" y1="378.46" x2="813.33" y2="588.58" xlink:href="#linear-gradient"/><linearGradient id="linear-gradient-4" x1="802.95" y1="365.32" x2="757.16" y2="444.63" xlink:href="#linear-gradient"/><linearGradient id="linear-gradient-5" x1="125.2" y1="663.47" x2="125.2" y2="302.27" xlink:href="#linear-gradient"/><linearGradient id="linear-gradient-6" x1="193.1" y1="680.16" x2="194.29" y2="555.33" xlink:href="#linear-gradient"/><linearGradient id="linear-gradient-7" x1="264.48" y1="320.37" x2="258.35" y2="640.63" xlink:href="#linear-gradient"/></defs><title>Ark-Shelf-Logo2-Text</title><path d="M501.06,372.78a19.48,19.48,0,0,0-35.29.06L390.06,535.07a24.8,24.8,0,0,0,22.47,35.28h0a24.78,24.78,0,0,0,22.53-14.45L441,543.08l21.44-46.21,11.4-24.44a11,11,0,0,1,19.95.05L505,496.87l21.42,46.21,6.11,13A24.8,24.8,0,0,0,555,570.35h0A24.8,24.8,0,0,0,577.41,535Z" style="fill:url(#linear-gradient)"/><path d="M719.88,501.29a10.06,10.06,0,0,1,1.17-11.78,76.61,76.61,0,0,0-57.11-127.92H561.3a23.11,23.11,0,0,0-23.1,23.11h0a23.1,23.1,0,0,0,23.1,23.1H664.19c16.55,0,30.45,13.13,30.65,29.69a29.69,29.69,0,0,1-30.06,30.15h-52a23.11,23.11,0,0,0-23.11,23.11v1.11A23.11,23.11,0,0,0,612.76,515h41.59A18.14,18.14,0,0,1,670,524l19.14,32.84a27.26,27.26,0,0,0,23.56,13.54h0a27.27,27.27,0,0,0,23.54-41Z" style="fill:url(#linear-gradient-2)"/><path d="M915.26,570.35h0a27.38,27.38,0,0,1-19.34-8l-56.87-56.65a13.19,13.19,0,0,0-18.74.12h0a13.21,13.21,0,0,0-3.77,9.23v27.88a27.41,27.41,0,0,1-27.41,27.41h0a27.41,27.41,0,0,1-27.41-27.41v-41.1a35.76,35.76,0,0,1,10.42-25.23L816.54,432l62.17-62.42a27.16,27.16,0,0,1,19.27-8h0c24.21,0,36.35,29.26,19.26,46.4l-41.83,41.95a10.09,10.09,0,0,0,0,14.25l59.24,59.39C951.9,540.86,939.66,570.35,915.26,570.35Z" style="fill:url(#linear-gradient-3)"/><path d="M816.54,389h0A29.31,29.31,0,0,1,808,409.73l-38,38.14a4.85,4.85,0,0,1-8.29-3.43V389a27.42,27.42,0,0,1,27.42-27.42h0A27.42,27.42,0,0,1,816.54,389Z" style="fill:url(#linear-gradient-4)"/><path d="M752.28,603.63a3.86,3.86,0,0,0-3.81-3.82,3.81,3.81,0,0,0-3.75,3.82,3.74,3.74,0,0,0,3.75,3.74A15.52,15.52,0,1,1,733,622.83h11.7a3.76,3.76,0,0,0,3.75,3.81,3.8,3.8,0,0,0,3.81-3.75,3.85,3.85,0,0,0-3.81-3.81,15.42,15.42,0,1,1,15.45-15.45Z" style="fill:#292c3d"/><path d="M786.46,588.24V606.1h15.93V588.24h13.17v50.17H802.39V619.28H786.46v19.13H773.29V588.24Z" style="fill:#292c3d"/><path d="M825.66,588.24h31.18v10.9h-18v8.17h15.92v11.1H838.84v9.23h18v10.77H825.66Z" style="fill:#292c3d"/><path d="M866.27,588.24h13.18v36.93h18.06v13.24H866.27Z" style="fill:#292c3d"/><path d="M906.94,588.24h31.44v10.84H920.11v8.16h16.13v11.17H920.11v20H906.94Z" style="fill:#292c3d"/><polygon points="193.12 322.16 57.28 353.03 57.28 677.84 193.12 541.16 193.12 322.16" style="fill:url(#linear-gradient-5)"/><polygon points="57.28 677.84 193.12 596.3 328.96 677.84 193.12 541.16 57.28 677.84" style="fill:url(#linear-gradient-6)"/><polygon points="193.12 322.16 193.12 541.16 328.96 677.84 328.96 342.74 193.12 322.16" style="fill:url(#linear-gradient-7)"/></svg>