<svg id="Layer_1" data-name="Layer 1" xmlns="http://www.w3.org/2000/svg" xmlns:xlink="http://www.w3.org/1999/xlink" viewBox="0 0 1000 1000"><defs><linearGradient id="linear-gradient" x1="625.67" y1="62.24" x2="635.58" y2="628.68" gradientUnits="userSpaceOnUse"><stop offset="0" stop-color="#13b1ea"/><stop offset="1" stop-color="#2340e8"/></linearGradient><linearGradient id="linear-gradient-2" x1="500" y1="601.1" x2="500" y2="429.41" xlink:href="#linear-gradient"/><linearGradient id="linear-gradient-3" x1="366.23" y1="602.84" x2="366.23" y2="39.69" xlink:href="#linear-gradient"/><linearGradient id="linear-gradient-4" x1="386.22" y1="705.9" x2="268.44" y2="909.92" xlink:href="#linear-gradient"/><linearGradient id="linear-gradient-5" x1="531.55" y1="669.94" x2="440.49" y2="827.66" xlink:href="#linear-gradient"/><linearGradient id="linear-gradient-6" x1="785.66" y1="681.38" x2="657.04" y2="904.16" xlink:href="#linear-gradient"/><linearGradient id="linear-gradient-7" x1="646.03" y1="667.46" x2="597.48" y2="751.54" xlink:href="#linear-gradient"/></defs><title>Ark-Navigator-Logo-Text2</title><polygon points="767.53 613.77 500 43 500 436.76 767.53 613.77" style="fill:url(#linear-gradient)"/><polygon points="500 436.76 232.47 613.77 500 529.82 767.53 613.77 500 436.76" style="fill:url(#linear-gradient-2)"/><polygon points="500 43 232.47 613.77 500 436.76 500 43" style="fill:url(#linear-gradient-3)"/><path d="M326,675.36a20.66,20.66,0,0,0-37.42.07l-80.26,172a26.29,26.29,0,0,0,23.82,37.41h0A26.28,26.28,0,0,0,256,869.52l6.25-13.6,22.73-49L297.05,781a11.65,11.65,0,0,1,21.14.05l11.92,25.86,22.71,49,6.48,13.8a26.29,26.29,0,0,0,23.8,15.12h0a26.29,26.29,0,0,0,23.79-37.49Z" style="fill:url(#linear-gradient-4)"/><path d="M558,811.61a10.66,10.66,0,0,1,1.24-12.49A81.22,81.22,0,0,0,498.65,663.5H389.82A24.5,24.5,0,0,0,365.33,688h0a24.49,24.49,0,0,0,24.49,24.49H498.91c17.55,0,32.29,13.93,32.5,31.48a31.49,31.49,0,0,1-31.87,32H444.38a24.5,24.5,0,0,0-24.5,24.5v1.18a24.49,24.49,0,0,0,24.5,24.49h44.1a19.25,19.25,0,0,1,16.63,9.56l20.29,34.82a28.92,28.92,0,0,0,25,14.35h0a28.91,28.91,0,0,0,25-43.5Z" style="fill:url(#linear-gradient-5)"/><path d="M765.11,884.84h0a29.05,29.05,0,0,1-20.51-8.48L684.31,816.3a14,14,0,0,0-19.87.13h0a14,14,0,0,0-4,9.78v29.57a29.07,29.07,0,0,1-29.06,29.06h0a29.06,29.06,0,0,1-29.06-29.06V812.2a37.89,37.89,0,0,1,11.05-26.75l47.1-47.28L726.35,672a28.86,28.86,0,0,1,20.43-8.49h0c25.67,0,38.55,31,20.42,49.2l-44.34,44.47a10.71,10.71,0,0,0,0,15.11l62.82,63C804,853.57,791,884.84,765.11,884.84Z" style="fill:url(#linear-gradient-6)"/><path d="M660.44,692.57h0a31.12,31.12,0,0,1-9.07,22L611.09,755a5.14,5.14,0,0,1-8.79-3.63V692.57a29.08,29.08,0,0,1,29.07-29.07h0A29.07,29.07,0,0,1,660.44,692.57Z" style="fill:url(#linear-gradient-7)"/><path d="M365.64,957l-25.1-25.18V957h-14V903.81h5.67l25.18,25.1v-25.1h14V957Z" style="fill:#f2f2f2"/><path d="M378.55,957l24.82-53.19h6.32l25,53.19h-14l-3.26-7H395.72l-3.2,7Zm22.63-18.72H412l-5.39-11.71Z" style="fill:#f2f2f2"/><path d="M489.55,903.73,464.8,957h-6.39l-24.82-53.27h14l14,30.29,14-30.29Z" style="fill:#f2f2f2"/><path d="M495.57,903.81h14V957h-14Z" style="fill:#f2f2f2"/><path d="M572.6,928.42v2a26.65,26.65,0,1,1-7.88-18.86l-9.85,9.78a12.76,12.76,0,0,0-8.87-3.54,12.63,12.63,0,1,0,10.28,20H546v-9.36Z" style="fill:#f2f2f2"/><path d="M576.71,957l24.82-53.19h6.31l25,53.19h-14l-3.26-7H593.87l-3.19,7Zm22.62-18.72h10.86l-5.4-11.71Z" style="fill:#f2f2f2"/><path d="M635.29,903.73h41.92v13.91H663.09V957h-14V917.64H635.29Z" style="fill:#f2f2f2"/><path d="M709.48,903.81A26.6,26.6,0,1,1,683,930.47,26.66,26.66,0,0,1,709.48,903.81Zm0,13.9a12.7,12.7,0,1,0,12.69,12.69A12.67,12.67,0,0,0,709.48,917.71Z" style="fill:#f2f2f2"/><path d="M776.64,957l-8.23-14.11h-8.65V957h-14V903.81H768.2a19.52,19.52,0,0,1,13.26,33.9L792.74,957Zm-16.88-26.17h8.65a7.63,7.63,0,1,0,0-15.25h-8.65Z" style="fill:#f2f2f2"/></svg>