<svg id="Layer_1" data-name="Layer 1" xmlns="http://www.w3.org/2000/svg" xmlns:xlink="http://www.w3.org/1999/xlink" viewBox="0 0 1000 1000"><defs><linearGradient id="linear-gradient" x1="391" y1="590.71" x2="391" y2="11.09" gradientUnits="userSpaceOnUse"><stop offset="0" stop-color="#e51f40"/><stop offset="1" stop-color="#660e3a"/></linearGradient><linearGradient id="linear-gradient-2" x1="499.96" y1="617.5" x2="501.87" y2="417.18" xlink:href="#linear-gradient"/><linearGradient id="linear-gradient-3" x1="614.51" y1="40.14" x2="604.68" y2="554.05" xlink:href="#linear-gradient"/><linearGradient id="linear-gradient-4" x1="386.22" y1="705.9" x2="268.44" y2="909.92" xlink:href="#linear-gradient"/><linearGradient id="linear-gradient-5" x1="531.55" y1="669.94" x2="440.49" y2="827.66" xlink:href="#linear-gradient"/><linearGradient id="linear-gradient-6" x1="785.66" y1="681.38" x2="657.04" y2="904.16" xlink:href="#linear-gradient"/><linearGradient id="linear-gradient-7" x1="646.03" y1="667.46" x2="597.48" y2="751.54" xlink:href="#linear-gradient"/></defs><title>Ark-Shelf-Logo-Text</title><polygon points="500 43 282.01 92.54 282.01 613.77 500 394.44 500 43" style="fill:url(#linear-gradient)"/><polygon points="282.01 613.77 500 482.91 717.99 613.77 500 394.44 282.01 613.77" style="fill:url(#linear-gradient-2)"/><polygon points="500 43 500 394.44 717.99 613.77 717.99 76.03 500 43" style="fill:url(#linear-gradient-3)"/><path d="M326,675.36a20.66,20.66,0,0,0-37.42.07l-80.26,172a26.29,26.29,0,0,0,23.82,37.41h0A26.28,26.28,0,0,0,256,869.52l6.25-13.6,22.73-49L297.05,781a11.65,11.65,0,0,1,21.14.05l11.92,25.86,22.71,49,6.48,13.8a26.29,26.29,0,0,0,23.8,15.12h0a26.29,26.29,0,0,0,23.79-37.49Z" style="fill:url(#linear-gradient-4)"/><path d="M558,811.61a10.66,10.66,0,0,1,1.24-12.49A81.22,81.22,0,0,0,498.65,663.5H389.82A24.5,24.5,0,0,0,365.33,688h0a24.49,24.49,0,0,0,24.49,24.49H498.91c17.55,0,32.29,13.93,32.5,31.48a31.49,31.49,0,0,1-31.87,32H444.38a24.5,24.5,0,0,0-24.5,24.5v1.18a24.49,24.49,0,0,0,24.5,24.49h44.1a19.25,19.25,0,0,1,16.63,9.56l20.29,34.82a28.92,28.92,0,0,0,25,14.35h0a28.91,28.91,0,0,0,25-43.5Z" style="fill:url(#linear-gradient-5)"/><path d="M765.11,884.84h0a29.05,29.05,0,0,1-20.51-8.48L684.31,816.3a14,14,0,0,0-19.87.13h0a14,14,0,0,0-4,9.78v29.57a29.07,29.07,0,0,1-29.06,29.06h0a29.06,29.06,0,0,1-29.06-29.06V812.2a37.89,37.89,0,0,1,11.05-26.75l47.1-47.28L726.35,672a28.86,28.86,0,0,1,20.43-8.49h0c25.67,0,38.55,31,20.42,49.2l-44.34,44.47a10.71,10.71,0,0,0,0,15.11l62.82,63C804,853.57,791,884.84,765.11,884.84Z" style="fill:url(#linear-gradient-6)"/><path d="M660.44,692.57h0a31.12,31.12,0,0,1-9.07,22L611.09,755a5.14,5.14,0,0,1-8.79-3.63V692.57a29.08,29.08,0,0,1,29.07-29.07h0A29.07,29.07,0,0,1,660.44,692.57Z" style="fill:url(#linear-gradient-7)"/><path d="M592.31,920.12a4.08,4.08,0,0,0-4-4,4,4,0,0,0-4,4,4,4,0,0,0,4,4,16.46,16.46,0,1,1-16.38,16.38H584.3a4,4,0,0,0,4,4,4,4,0,0,0,4-4,4.09,4.09,0,0,0-4-4,16.35,16.35,0,1,1,16.39-16.38Z" style="fill:#292c3d"/><path d="M628.55,903.81v18.93h16.88V903.81h14V957h-14V936.72H628.55V957h-14V903.81Z" style="fill:#292c3d"/><path d="M670.11,903.81h33.06v11.56H684.09V924H701v11.77H684.09v9.79h19.08V957H670.11Z" style="fill:#292c3d"/><path d="M713.16,903.81h14V943h19.15v14H713.16Z" style="fill:#292c3d"/><path d="M756.28,903.81h33.34V915.3H770.26V924h17.09v11.84H770.26V957h-14Z" style="fill:#292c3d"/></svg>