<svg id="Layer_1" data-name="Layer 1" xmlns="http://www.w3.org/2000/svg" xmlns:xlink="http://www.w3.org/1999/xlink" viewBox="0 0 1000 1000"><defs><linearGradient id="linear-gradient" x1="319.42" y1="339.03" x2="132.46" y2="662.85" gradientUnits="userSpaceOnUse"><stop offset="0" stop-color="#ffcc19"/><stop offset="1" stop-color="#ff3b04"/></linearGradient><linearGradient id="linear-gradient-2" x1="550.08" y1="281.95" x2="405.54" y2="532.29" xlink:href="#linear-gradient"/><linearGradient id="linear-gradient-3" x1="953.4" y1="300.11" x2="749.25" y2="653.71" xlink:href="#linear-gradient"/><linearGradient id="linear-gradient-4" x1="731.78" y1="278.01" x2="654.73" y2="411.47" xlink:href="#linear-gradient"/></defs><title>Ark-Logo-Text</title><path d="M223.75,290.56a32.79,32.79,0,0,0-59.39.1L37,563.67C24.05,591.33,44.25,623,74.78,623h0a41.75,41.75,0,0,0,37.92-24.31l9.91-21.59,36.07-77.76,19.19-41.13a18.5,18.5,0,0,1,33.56.08l18.91,41.05,36.06,77.76L276.68,599a41.73,41.73,0,0,0,37.77,24h0a41.72,41.72,0,0,0,37.75-59.5Z" style="fill:url(#linear-gradient)"/><path d="M592,506.82A16.92,16.92,0,0,1,594,487a128.56,128.56,0,0,0,33.18-86c0-71.2-58.08-129.29-129.28-129.29H325.13a38.88,38.88,0,0,0-38.88,38.88h0a38.88,38.88,0,0,0,38.88,38.88H498.28c27.85,0,51.23,22.1,51.57,50,.34,28.41-22.27,50.75-50.59,50.75H411.72a38.88,38.88,0,0,0-38.88,38.88V491a38.88,38.88,0,0,0,38.88,38.88h70A30.54,30.54,0,0,1,508.1,545l32.22,55.26A45.88,45.88,0,0,0,580,623h0c35.43,0,57.49-38.45,39.61-69Z" style="fill:url(#linear-gradient-2)"/><path d="M920.78,623h0a46.12,46.12,0,0,1-32.55-13.45l-95.69-95.33a22.21,22.21,0,0,0-31.54.19h0A22.23,22.23,0,0,0,754.66,530v46.92A46.12,46.12,0,0,1,708.54,623h0a46.13,46.13,0,0,1-46.13-46.13V507.74A60.12,60.12,0,0,1,679.9,465.3l74.76-75.06,104.61-105a45.76,45.76,0,0,1,32.43-13.48h0c40.74,0,61.18,49.24,32.41,78.09L853.73,420.4a17,17,0,0,0,0,24l99.71,100C982.44,573.41,961.85,623,920.78,623Z" style="fill:url(#linear-gradient-3)"/><path d="M754.66,317.87h0a49.43,49.43,0,0,1-14.4,34.87l-63.93,64.18a8.17,8.17,0,0,1-14-5.76V317.87a46.14,46.14,0,0,1,46.14-46.14h0A46.15,46.15,0,0,1,754.66,317.87Z" style="fill:url(#linear-gradient-4)"/><path d="M236.19,728.27V671.83H261.1a17,17,0,0,1,16.71,16.78,16.53,16.53,0,0,1-3.61,10.16A16.47,16.47,0,0,1,264,728.27Zm22-34.39a4.9,4.9,0,0,0,0-9.79H251v9.79Zm2.78,22.2a4.89,4.89,0,0,0,4.9-4.89,5,5,0,0,0-4.9-4.89H251v9.78Z" style="fill:#292c3d"/><path d="M326.88,705.77a7.38,7.38,0,0,0,14.75,0V671.83h14.91V706A22.28,22.28,0,0,1,312,706V671.83h14.9Z" style="fill:#292c3d"/><path d="M390.33,671.83h14.82v56.44H390.33Z" style="fill:#292c3d"/><path d="M439.1,671.83h14.82v41.54h20.32v14.9H439.1Z" style="fill:#292c3d"/><path d="M507.43,671.83h20.92a28.22,28.22,0,1,1,0,56.44H507.43Zm14.75,41.84h6.25a13.36,13.36,0,1,0,0-26.72h-6.25Z" style="fill:#292c3d"/><path d="M589.39,671.83h35.07v12.26H604.22v9.19h17.91v12.49H604.22v10.38h20.24v12.12H589.39Z" style="fill:#292c3d"/><path d="M690.39,728.27l-8.73-15h-9.18v15H657.65V671.83h23.78a20.72,20.72,0,0,1,14.08,36l12,20.47ZM672.48,700.5h9.18a8.09,8.09,0,1,0,0-16.18h-9.18Z" style="fill:#292c3d"/><path d="M750.71,689.14a4.33,4.33,0,0,0-4.29-4.29,4.27,4.27,0,0,0-4.21,4.29,4.2,4.2,0,0,0,4.21,4.21A17.46,17.46,0,1,1,729,710.74h13.17a4.23,4.23,0,0,0,4.21,4.29,4.28,4.28,0,0,0,4.29-4.22,4.34,4.34,0,0,0-4.29-4.29,17.35,17.35,0,1,1,17.39-17.38Z" style="fill:#292c3d"/></svg>