<svg id="Layer_1" data-name="Layer 1" xmlns="http://www.w3.org/2000/svg" viewBox="0 0 1000 1000"><title>Ark-Logo-Only-wh</title><path d="M223.75,343.18a32.79,32.79,0,0,0-59.39.1L37,616.28a41.73,41.73,0,0,0,37.82,59.37h0a41.73,41.73,0,0,0,37.92-24.31l9.91-21.58L158.68,552l19.19-41.13a18.49,18.49,0,0,1,33.56.08L230.34,552l36.06,77.76,10.28,21.9a41.74,41.74,0,0,0,37.77,24h0c30.59,0,50.78-31.82,37.75-59.49Z" style="fill:#f2f2f2"/><path d="M592,559.43a16.9,16.9,0,0,1,2-19.82,128.61,128.61,0,0,0,33.18-86c0-71.19-58.08-129.28-129.28-129.28H325.13a38.88,38.88,0,0,0-38.88,38.88h0a38.88,38.88,0,0,0,38.88,38.88H498.28c27.85,0,51.23,22.1,51.57,50,.34,28.41-22.27,50.75-50.59,50.75H411.72a38.88,38.88,0,0,0-38.88,38.88v1.87a38.88,38.88,0,0,0,38.88,38.88h70a30.53,30.53,0,0,1,26.39,15.16l32.22,55.27A45.88,45.88,0,0,0,580,675.65h0c35.43,0,57.49-38.45,39.61-69Z" style="fill:#f2f2f2"/><path d="M920.78,675.65h0a46.12,46.12,0,0,1-32.55-13.44l-95.69-95.33a22.2,22.2,0,0,0-31.54.19h0a22.23,22.23,0,0,0-6.34,15.54v46.92a46.12,46.12,0,0,1-46.12,46.12h0a46.12,46.12,0,0,1-46.13-46.12V560.36a60.16,60.16,0,0,1,17.53-42.45l74.76-75,104.61-105a45.79,45.79,0,0,1,32.43-13.47h0c40.74,0,61.18,49.23,32.41,78.09L853.73,473a17,17,0,0,0,0,24l99.71,100C982.44,626,961.85,675.65,920.78,675.65Z" style="fill:#f2f2f2"/><path d="M754.66,370.49h0a49.43,49.43,0,0,1-14.4,34.87l-63.93,64.18a8.17,8.17,0,0,1-14-5.76V370.49a46.14,46.14,0,0,1,46.14-46.14h0A46.14,46.14,0,0,1,754.66,370.49Z" style="fill:#f2f2f2"/></svg>