<svg id="Layer_1" data-name="Layer 1" xmlns="http://www.w3.org/2000/svg" xmlns:xlink="http://www.w3.org/1999/xlink" viewBox="0 0 1000 1000"><defs><linearGradient id="linear-gradient" x1="370.23" y1="2540.52" x2="400.1" y2="2106.12" gradientTransform="matrix(0.79, 0.79, -0.64, 0.64, 1733.77, -1656.94)" gradientUnits="userSpaceOnUse"><stop offset="0" stop-color="#ff00b7"/><stop offset="1" stop-color="#9e005d"/></linearGradient><linearGradient id="linear-gradient-2" x1="563.09" y1="2147.43" x2="560.39" y2="2554.99" xlink:href="#linear-gradient"/><linearGradient id="linear-gradient-3" x1="470.93" y1="2496.48" x2="475.65" y2="2384.8" xlink:href="#linear-gradient"/><linearGradient id="linear-gradient-4" x1="5182.93" y1="1253.92" x2="5212.79" y2="819.52" gradientTransform="matrix(-0.79, -0.79, 0.64, -0.64, 3876.23, 5263.47)" xlink:href="#linear-gradient"/><linearGradient id="linear-gradient-5" x1="5375.78" y1="860.84" x2="5373.08" y2="1268.4" gradientTransform="matrix(-0.79, -0.79, 0.64, -0.64, 3876.23, 5263.47)" xlink:href="#linear-gradient"/><linearGradient id="linear-gradient-6" x1="5283.63" y1="1209.89" x2="5288.35" y2="1098.21" gradientTransform="matrix(-0.79, -0.79, 0.64, -0.64, 3876.23, 5263.47)" xlink:href="#linear-gradient"/><linearGradient id="linear-gradient-7" x1="386.23" y1="697.57" x2="268.44" y2="901.58" gradientTransform="matrix(1, 0, 0, 1, 0, 0)" xlink:href="#linear-gradient"/><linearGradient id="linear-gradient-8" x1="531.55" y1="661.61" x2="440.49" y2="819.32" gradientTransform="matrix(1, 0, 0, 1, 0, 0)" xlink:href="#linear-gradient"/><linearGradient id="linear-gradient-9" x1="785.66" y1="673.05" x2="657.04" y2="895.83" gradientTransform="matrix(1, 0, 0, 1, 0, 0)" xlink:href="#linear-gradient"/><linearGradient id="linear-gradient-10" x1="646.03" y1="659.12" x2="597.48" y2="743.2" gradientTransform="matrix(1, 0, 0, 1, 0, 0)" xlink:href="#linear-gradient"/></defs><title>Ark-Compass-Logo-Text2</title><polygon points="765.88 51.34 615.75 201.46 456.88 274.09 354.98 172.2 765.88 51.34" style="fill:url(#linear-gradient)"/><polygon points="645.02 462.23 543.11 360.33 615.75 201.46 765.88 51.34 645.02 462.23" style="fill:url(#linear-gradient-2)"/><polygon points="543.11 360.33 561.86 255.36 456.88 274.09 615.75 201.46 543.11 360.33" style="fill:url(#linear-gradient-3)"/><polygon points="234.12 583.09 384.25 432.97 543.12 360.34 645.02 462.23 234.12 583.09" style="fill:url(#linear-gradient-4)"/><polygon points="354.98 172.2 456.89 274.11 384.25 432.97 234.12 583.09 354.98 172.2" style="fill:url(#linear-gradient-5)"/><polygon points="456.89 274.11 438.14 379.08 543.12 360.34 384.25 432.97 456.89 274.11" style="fill:url(#linear-gradient-6)"/><path d="M326,667a20.66,20.66,0,0,0-37.41.06l-80.27,172A26.29,26.29,0,0,0,232.1,876.5h0A26.29,26.29,0,0,0,256,861.18l6.24-13.59,22.73-49,12.09-25.91a11.65,11.65,0,0,1,21.14.05l11.92,25.86,22.72,49,6.47,13.79a26.29,26.29,0,0,0,23.8,15.12h0A26.28,26.28,0,0,0,406.9,839Z" style="fill:url(#linear-gradient-7)"/><path d="M558,803.28a10.66,10.66,0,0,1,1.24-12.49,81.23,81.23,0,0,0-60.55-135.62H389.83a24.5,24.5,0,0,0-24.5,24.49h0a24.5,24.5,0,0,0,24.5,24.5H498.91c17.55,0,32.29,13.92,32.5,31.47a31.5,31.5,0,0,1-31.87,32H444.38a24.48,24.48,0,0,0-24.49,24.49v1.18a24.49,24.49,0,0,0,24.49,24.5h44.1a19.26,19.26,0,0,1,16.63,9.55l20.29,34.82a28.92,28.92,0,0,0,25,14.35h0a28.91,28.91,0,0,0,25-43.5Z" style="fill:url(#linear-gradient-8)"/><path d="M765.11,876.5h0A29.07,29.07,0,0,1,744.6,868L684.31,808a14,14,0,0,0-19.87.12h0a14,14,0,0,0-4,9.79v29.56a29.06,29.06,0,0,1-29.06,29.06h0a29.06,29.06,0,0,1-29.06-29.06V803.86a37.9,37.9,0,0,1,11-26.74l47.1-47.29,65.91-66.17a28.8,28.8,0,0,1,20.43-8.49h0c25.67,0,38.55,31,20.42,49.19l-44.34,44.47a10.71,10.71,0,0,0,0,15.11l62.82,63C804,845.23,791,876.5,765.11,876.5Z" style="fill:url(#linear-gradient-9)"/><path d="M660.44,684.24h0a31.15,31.15,0,0,1-9.07,22l-40.28,40.43A5.14,5.14,0,0,1,602.3,743V684.24a29.07,29.07,0,0,1,29.07-29.08h0A29.07,29.07,0,0,1,660.44,684.24Z" style="fill:url(#linear-gradient-10)"/><path d="M467.88,913.06a12.42,12.42,0,0,0-8.94-3.48A12.49,12.49,0,1,0,467.88,931l9.93,9.79a26.59,26.59,0,1,1-18.87-45.32,26.34,26.34,0,0,1,18.73,7.73Z" style="fill:#f2f2f2"/><path d="M512.85,895.47a26.6,26.6,0,1,1-26.53,26.67A26.67,26.67,0,0,1,512.85,895.47Zm0,13.9a12.7,12.7,0,1,0,12.7,12.69A12.67,12.67,0,0,0,512.85,909.37Z" style="fill:#f2f2f2"/><path d="M577.18,915.18l21.63-19.71h6.32v53.19h-14v-27.3l-13.9,12.69-14-12.62v27.23h-14V895.47h6.31Z" style="fill:#f2f2f2"/><path d="M615.84,895.47h22.41a19.54,19.54,0,0,1,.28,39.08h-8.72v14.11h-14Zm14,27h8.65a7.63,7.63,0,1,0,0-15.25h-8.65Z" style="fill:#f2f2f2"/><path d="M659,948.66l24.83-53.19h6.31l25,53.19h-14l-3.26-6.95H676.13l-3.19,6.95Zm22.63-18.72h10.85l-5.39-11.71Z" style="fill:#f2f2f2"/><path d="M740,911.78a4.09,4.09,0,0,0-4-4,4,4,0,0,0-4,4,4,4,0,0,0,4,4,16.46,16.46,0,1,1-16.38,16.39H732a4,4,0,0,0,4,4,4,4,0,0,0,4-4,4.1,4.1,0,0,0-4-4.05,16.35,16.35,0,1,1,16.39-16.38Z" style="fill:#f2f2f2"/><path d="M781.88,911.78a4.08,4.08,0,0,0-4-4,4,4,0,0,0-4,4,4,4,0,0,0,4,4,16.46,16.46,0,1,1-16.38,16.39h12.41a4,4,0,0,0,4,4,4,4,0,0,0,4-4,4.09,4.09,0,0,0-4-4.05,16.35,16.35,0,1,1,16.38-16.38Z" style="fill:#f2f2f2"/></svg>