<svg id="Layer_1" data-name="Layer 1" xmlns="http://www.w3.org/2000/svg" viewBox="0 0 1000 1000"><title>Ark-Navigator-Logo2-Text-bk</title><polygon points="379.07 677.84 212.35 322.16 212.35 567.53 379.07 677.84" style="fill:#292c3d"/><polygon points="212.35 567.53 45.63 677.84 212.35 625.53 379.07 677.84 212.35 567.53" style="fill:#11121e"/><polygon points="212.35 322.16 45.63 677.84 212.35 567.53 212.35 322.16" style="fill:#191b28"/><path d="M512.7,372.78a19.48,19.48,0,0,0-35.29.06L401.7,535.07a24.8,24.8,0,0,0,22.47,35.28h0a24.8,24.8,0,0,0,22.54-14.45l5.89-12.82L474,496.87l11.41-24.44a11,11,0,0,1,19.94.05l11.24,24.39L538,543.08l6.11,13a24.82,24.82,0,0,0,22.45,14.26h0A24.8,24.8,0,0,0,589.05,535Z" style="fill:#292c3d"/><path d="M731.53,501.29a10.05,10.05,0,0,1,1.16-11.78,76.61,76.61,0,0,0-57.1-127.92H572.94a23.11,23.11,0,0,0-23.1,23.11h0a23.1,23.1,0,0,0,23.1,23.1H675.83c16.56,0,30.45,13.13,30.65,29.69a29.69,29.69,0,0,1-30.06,30.15h-52a23.11,23.11,0,0,0-23.11,23.11v1.11A23.11,23.11,0,0,0,624.4,515H666a18.14,18.14,0,0,1,15.68,9l19.14,32.84a27.26,27.26,0,0,0,23.56,13.54h0a27.27,27.27,0,0,0,23.54-41Z" style="fill:#292c3d"/><path d="M926.9,570.35h0a27.38,27.38,0,0,1-19.34-8L850.7,505.71a13.2,13.2,0,0,0-18.75.12h0a13.2,13.2,0,0,0-3.76,9.23v27.88a27.41,27.41,0,0,1-27.41,27.41h0a27.41,27.41,0,0,1-27.41-27.41v-41.1a35.76,35.76,0,0,1,10.42-25.23L828.19,432l62.16-62.42a27.18,27.18,0,0,1,19.27-8h0c24.21,0,36.35,29.26,19.26,46.4l-41.82,41.95a10.09,10.09,0,0,0,0,14.25l59.25,59.39C963.54,540.86,951.31,570.35,926.9,570.35Z" style="fill:#292c3d"/><path d="M828.19,389h0a29.36,29.36,0,0,1-8.56,20.72l-38,38.14a4.86,4.86,0,0,1-8.3-3.43V389a27.42,27.42,0,0,1,27.42-27.42h0A27.43,27.43,0,0,1,828.19,389Z" style="fill:#292c3d"/><path d="M550.14,638.41l-23.68-23.75v23.75H513.28V588.24h5.35l23.75,23.68V588.24h13.18v50.17Z" style="fill:#292c3d"/><path d="M562.31,638.41l23.41-50.17h6l23.61,50.17H602.11L599,631.86H578.5l-3,6.55Zm21.34-17.66h10.23l-5.08-11Z" style="fill:#292c3d"/><path d="M667,588.17l-23.35,50.24h-6l-23.41-50.24h13.24l13.18,28.57,13.25-28.57Z" style="fill:#292c3d"/><path d="M672.68,588.24h13.18v50.17H672.68Z" style="fill:#292c3d"/><path d="M745.33,611.45v1.88a25.13,25.13,0,1,1-7.43-17.8l-9.29,9.23a12,12,0,0,0-8.37-3.34,11.91,11.91,0,1,0,9.7,18.86h-9.7v-8.83Z" style="fill:#292c3d"/><path d="M749.21,638.41l23.41-50.17h6l23.62,50.17H789l-3.08-6.55H765.4l-3,6.55Zm21.34-17.66h10.23l-5.08-11Z" style="fill:#292c3d"/><path d="M804.46,588.17H844v13.11H830.68v37.13H817.51V601.28h-13Z" style="fill:#292c3d"/><path d="M874.43,588.24a25.09,25.09,0,1,1-25,25.15A25.16,25.16,0,0,1,874.43,588.24Zm0,13.11a12,12,0,1,0,12,12A12,12,0,0,0,874.43,601.35Z" style="fill:#292c3d"/><path d="M937.78,638.41,930,625.1h-8.16v13.31H908.68V588.24h21.14a18.42,18.42,0,0,1,12.51,32L953,638.41Zm-15.92-24.68H930a7.2,7.2,0,1,0,0-14.39h-8.16Z" style="fill:#292c3d"/></svg>