<svg id="Layer_1" data-name="Layer 1" xmlns="http://www.w3.org/2000/svg" xmlns:xlink="http://www.w3.org/1999/xlink" viewBox="0 0 1000 1000"><defs><linearGradient id="linear-gradient" x1="-1742.04" y1="-408.92" x2="-1696.99" y2="-1064.21" gradientTransform="matrix(0.79, 0.79, -0.64, 0.64, 1473.62, 2033.86)" gradientUnits="userSpaceOnUse"><stop offset="0" stop-color="#ff00b7"/><stop offset="1" stop-color="#9e005d"/></linearGradient><linearGradient id="linear-gradient-2" x1="-1451.12" y1="-1001.89" x2="-1455.19" y2="-387.09" xlink:href="#linear-gradient"/><linearGradient id="linear-gradient-3" x1="-1590.13" y1="-475.35" x2="-1583.01" y2="-643.82" xlink:href="#linear-gradient"/><linearGradient id="linear-gradient-4" x1="-1254.22" y1="6224.36" x2="-1209.17" y2="5569.08" gradientTransform="matrix(-0.79, -0.79, 0.64, -0.64, -4311.62, 3572.67)" xlink:href="#linear-gradient"/><linearGradient id="linear-gradient-5" x1="-963.3" y1="5631.39" x2="-967.37" y2="6246.2" gradientTransform="matrix(-0.79, -0.79, 0.64, -0.64, -4311.62, 3572.67)" xlink:href="#linear-gradient"/><linearGradient id="linear-gradient-6" x1="-1102.31" y1="6157.93" x2="-1095.19" y2="5989.47" gradientTransform="matrix(-0.79, -0.79, 0.64, -0.64, -4311.62, 3572.67)" xlink:href="#linear-gradient"/></defs><title> Ark-Compass-Logo-Only</title><polygon points="901.07 98.93 674.62 325.38 434.95 434.95 281.24 281.24 901.07 98.93" style="fill:url(#linear-gradient)"/><polygon points="718.76 718.76 565.03 565.03 674.62 325.38 901.07 98.93 718.76 718.76" style="fill:url(#linear-gradient-2)"/><polygon points="565.03 565.03 593.32 406.69 434.95 434.95 674.62 325.38 565.03 565.03" style="fill:url(#linear-gradient-3)"/><polygon points="98.93 901.07 325.38 674.62 565.05 565.05 718.76 718.76 98.93 901.07" style="fill:url(#linear-gradient-4)"/><polygon points="281.24 281.24 434.97 434.97 325.38 674.62 98.93 901.07 281.24 281.24" style="fill:url(#linear-gradient-5)"/><polygon points="434.97 434.97 406.69 593.32 565.05 565.05 325.38 674.62 434.97 434.97" style="fill:url(#linear-gradient-6)"/></svg>